<?xml version="1.0" encoding="UTF-8" standalone="no"?>
<!-- Created with Inkscape (http://www.inkscape.org/) -->

<svg
   xmlns:dc="http://purl.org/dc/elements/1.1/"
   xmlns:cc="http://creativecommons.org/ns#"
   xmlns:rdf="http://www.w3.org/1999/02/22-rdf-syntax-ns#"
   xmlns:svg="http://www.w3.org/2000/svg"
   xmlns="http://www.w3.org/2000/svg"
   xmlns:sodipodi="http://sodipodi.sourceforge.net/DTD/sodipodi-0.dtd"
   xmlns:inkscape="http://www.inkscape.org/namespaces/inkscape"
   width="209.81181mm"
   height="207.41748mm"
   viewBox="0 0 209.81181 207.41748"
   version="1.1"
   id="svg8"
   inkscape:version="0.92.1 r15371"
   sodipodi:docname="logo.svg">
  <defs
     id="defs2" />
  <sodipodi:namedview
     id="base"
     pagecolor="#ffffff"
     bordercolor="#666666"
     borderopacity="1.0"
     inkscape:pageopacity="0.0"
     inkscape:pageshadow="2"
     inkscape:zoom="0.35"
     inkscape:cx="240.43155"
     inkscape:cy="-243.07038"
     inkscape:document-units="mm"
     inkscape:current-layer="layer1"
     showgrid="false"
     fit-margin-top="0"
     fit-margin-left="0"
     fit-margin-right="0"
     fit-margin-bottom="0"
     inkscape:window-width="1920"
     inkscape:window-height="1017"
     inkscape:window-x="-8"
     inkscape:window-y="-8"
     inkscape:window-maximized="1" />
  <metadata
     id="metadata5">
    <rdf:RDF>
      <cc:Work
         rdf:about="">
        <dc:format>image/svg+xml</dc:format>
        <dc:type
           rdf:resource="http://purl.org/dc/dcmitype/StillImage" />
        <dc:title></dc:title>
      </cc:Work>
    </rdf:RDF>
  </metadata>
  <g
     inkscape:label="Layer 1"
     inkscape:groupmode="layer"
     id="layer1"
     transform="translate(0.59799077,248.14266)">
    <g
       id="g4496"
       transform="translate(-276.89123,-31.003266)"
       style="fill:#000000">
      <path
         style="fill:#000000;fill-opacity:1;stroke-width:0.26458332"
         d="m 276.73138,-9.8977752 c -0.29943,-0.2208398 -0.36937,-8.8914198 -0.4231,-52.4536498 -0.0474,-38.455385 0.0138,-52.189055 0.23266,-52.189055 0.16337,0 0.78848,0.56555 1.38914,1.25678 0.60066,0.69122 1.44926,1.61404 1.88578,2.0507 0.43652,0.43667 0.79368,0.88653 0.79368,0.99971 0,0.11317 0.35689,0.58934 0.79308,1.05815 0.4362,0.46881 1.68544,1.92394 2.7761,3.23363 1.09065,1.30968 2.37087,2.80646 2.84493,3.32617 1.39912,1.53385 3.50437,3.979197 4.73835,5.503847 0.63287,0.78193 2.40082,2.8661 3.92879,4.63149 4.07361,4.706588 6.89491,8.025558 8.34907,9.821818 0.70683,0.87312 2.89769,3.44777 4.86856,5.72144 1.97087,2.27367 3.90896,4.53585 4.30685,5.02708 0.39789,0.49123 2.88156,3.39346 5.51926,6.44939 2.6377,3.05594 5.10888,5.97297 5.49152,6.4823 0.68609,0.91324 5.2633,6.26117 6.68036,7.8052 0.91992,1.00236 2.02725,2.3176 4.34376,5.15938 1.0083,1.23693 2.93616,3.50721 4.28414,5.04507 1.34798,1.53787 3.06226,3.56193 3.80952,4.49792 0.74725,0.93599 1.99058,2.41618 2.76294,3.2893 0.77237,0.87313 1.90222,2.18281 2.51077,2.91042 0.60856,0.7276 1.3981,1.62057 1.75454,1.98437 0.57087,0.58266 2.01012,2.28557 5.34416,6.32319 0.52855,0.64009 1.90665,2.24743 3.06244,3.57187 2.8304,3.24341 2.87534,3.29601 3.97798,4.65703 1.3941,1.72076 1.58654,1.9326 2.23424,2.45943 0.32123,0.26128 0.54497,0.678 0.49721,0.92604 -0.0813,0.4221398 -2.91066,0.4594498 -44.24242,0.5832798 -29.23012,0.0876 -44.27683,0.0429 -44.51431,-0.1323 z m 111.56357,-3.4638798 c -1.67349,-1.97633 -4.95149,-5.81545 -7.28445,-8.53139 -2.33297,-2.71593 -5.12921,-6.00962 -6.21389,-7.31931 -1.08467,-1.30969 -3.87885,-4.60166 -6.20929,-7.3155 -2.33044,-2.71384 -4.91941,-5.74994 -5.75327,-6.74688 -0.83386,-0.99694 -2.24133,-2.58652 -3.12771,-3.53241 -0.88638,-0.94589 -2.22819,-2.47692 -2.9818,-3.4023 -0.75362,-0.92537 -3.69193,-4.40145 -6.52959,-7.72461 -5.33618,-6.24916 -13.96153,-16.37582 -18.75449,-22.01886 -1.51096,-1.77894 -3.02356,-3.53209 -3.36133,-3.8959 -0.83815,-0.90274 -4.29344,-4.99045 -5.26855,-6.232838 -0.43657,-0.55623 -1.23074,-1.49475 -1.76483,-2.0856 -0.53409,-0.59084 -1.48659,-1.67109 -2.11666,-2.40054 -0.63008,-0.72945 -1.40732,-1.62242 -1.72722,-1.98437 -1.57102,-1.77761 -7.18838,-8.443087 -7.80142,-9.257057 -0.3836,-0.50933 -1.31179,-1.58089 -2.06265,-2.38125 -1.92634,-2.05336 -2.44631,-2.6508 -3.22384,-3.70417 -0.37595,-0.50932 -1.36382,-1.69995 -2.19527,-2.64583 -2.11067,-2.40118 -3.25066,-3.70354 -4.06923,-4.64884 -0.38691,-0.44681 -1.37848,-1.5779 -2.2035,-2.51354 -0.82502,-0.93564 -1.95612,-2.28062 -2.51354,-2.98884 -0.94535,-1.20107 -6.42093,-7.5856 -7.51844,-8.7665 -0.75169,-0.8088 -3.73417,-4.38181 -4.5275,-5.42395 -0.38772,-0.50933 -1.25809,-1.52136 -1.93415,-2.24896 -0.67605,-0.72761 -1.39865,-1.64442 -1.60578,-2.03737 -0.20712,-0.39295 -0.55315,-0.81327 -0.76895,-0.93403 -0.34369,-0.19234 -0.39407,-4.71358 -0.40609,-36.43821 -0.0111,-29.22051 0.052,-36.26061 0.32622,-36.43596 0.18696,-0.11954 21.57335,-0.18866 47.5253,-0.1536 l 47.18538,0.0637 0.52485,0.66146 c 1.6558,2.08678 6.027,7.17954 7.60773,8.86354 1.48349,1.58042 4.18639,4.67232 6.93884,7.9375 1.10403,1.30969 2.35103,2.78797 2.77112,3.28507 0.73144,0.86553 1.64807,1.87528 3.26267,3.5941 0.41008,0.43656 2.01971,2.28203 3.57691,4.10104 1.55721,1.81901 3.20844,3.73193 3.66943,4.25093 0.46095,0.519 1.55249,1.76624 2.42562,2.77165 0.87312,1.0054 1.96757,2.24764 2.43213,2.76052 0.46453,0.51289 2.58093,2.95659 4.70307,5.43044 3.62977,4.23131 4.52218,5.25547 6.57863,7.54983 1.21401,1.35449 3.43506,3.90849 6.54955,7.53142 2.54873,2.96481 6.32153,7.25748 7.44127,8.46667 1.47736,1.59536 2.28722,2.51812 3.11931,3.55417 1.29788,1.616 4.55551,5.37796 6.46276,7.4633 0.88387,0.96638 2.02375,2.25127 2.53307,2.85532 0.50932,0.60405 1.28323,1.49705 1.71979,1.98445 0.43656,0.4874 1.22613,1.40516 1.75459,2.03947 2.48044,2.97731 6.70557,7.82164 7.23648,8.29704 0.71268,0.63817 5.54588,6.23088 6.53696,7.56422 0.38822,0.5223 1.19372,1.4748 1.79001,2.11667 1.43063,1.54002 3.0671,3.35374 3.93856,4.36512 0.38709,0.44926 1.49349,1.69942 2.45864,2.77812 0.96515,1.07871 2.17789,2.49707 2.69499,3.15191 1.41542,1.79244 3.98362,4.737728 5.42166,6.217708 2.35762,2.42641 9.66875,11.139008 9.98762,11.902138 0.53031,1.26922 0.58706,75.24894 0.058,75.5846898 -0.18584,0.11795 -21.47149,0.21563 -47.30144,0.21707 l -46.96354,0.003 z m 95.63677,-102.152085 c -0.57653,-0.68082 -1.16729,-1.44441 -1.31281,-1.69685 -0.14552,-0.25245 -1.03849,-1.31364 -1.98437,-2.3582 -5.54816,-6.12692 -6.7414,-7.4727 -7.12809,-8.03922 -0.35078,-0.51395 -6.15955,-7.2674 -7.68858,-8.939 -0.7561,-0.8266 -1.78628,-2.01768 -5.4523,-6.30388 -3.29482,-3.85223 -6.35005,-7.34854 -7.16729,-8.20209 -0.34833,-0.3638 -2.24917,-2.56646 -4.22413,-4.89479 -1.97493,-2.32833 -4.33633,-5.06677 -5.24756,-6.08542 -1.43047,-1.59909 -4.52213,-5.21557 -8.01346,-9.37378 -0.97026,-1.15558 -1.41012,-1.64793 -4.03514,-4.51684 -0.73234,-0.80036 -2.30989,-2.62362 -3.5057,-4.05169 -2.84702,-3.39994 -7.665,-8.94133 -9.32439,-10.72436 -0.72406,-0.77802 -1.4219,-1.61146 -1.55072,-1.85208 -0.12886,-0.24062 -0.56886,-0.79468 -0.97782,-1.23124 -0.40897,-0.43657 -1.72162,-1.92485 -2.91698,-3.3073 -1.19539,-1.38244 -2.38075,-2.75166 -2.63417,-3.04271 -0.25344,-0.29104 -0.9752,-1.12447 -1.60396,-1.85208 -0.62875,-0.7276 -1.80133,-2.03955 -2.60572,-2.91543 -0.80438,-0.87589 -1.81972,-2.06132 -2.25629,-2.6343 -1.33389,-1.75072 -5.07682,-6.00576 -6.68009,-7.59409 -0.83397,-0.82618 -1.44558,-1.57288 -1.35914,-1.65932 0.0865,-0.0864 20.25716,-0.15798 44.82381,-0.15897 35.96724,-10e-4 44.71061,0.0641 44.89249,0.33641 0.12419,0.18601 0.16308,0.68051 0.0864,1.09888 -0.0767,0.41837 -0.13947,23.36767 -0.13947,50.99844 0,48.07833 -0.0204,50.23776 -0.47312,50.23776 -0.26025,0 -0.94486,-0.55704 -1.52136,-1.23785 z"
         id="path4498"
         inkscape:connector-curvature="0"
         sodipodi:nodetypes="cssccscccsscscccccccccscscccsccccssccsccccccccccccsccsccscscccccccccccccccccccccccccccccccccccccccccccccccccccccsccsscc" />
    </g>
  </g>
</svg>
