<?xml version="1.0" encoding="UTF-8" standalone="no"?>
<!-- Created with Inkscape (http://www.inkscape.org/) -->

<svg
   width="21.92441mm"
   height="33.837616mm"
   viewBox="0 0 21.92441 33.837616"
   version="1.1"
   id="svg13733"
   inkscape:version="1.1.1 (3bf5ae0d25, 2021-09-20)"
   sodipodi:docname="flaska.svg"
   xmlns:inkscape="http://www.inkscape.org/namespaces/inkscape"
   xmlns:sodipodi="http://sodipodi.sourceforge.net/DTD/sodipodi-0.dtd"
   xmlns="http://www.w3.org/2000/svg"
   xmlns:svg="http://www.w3.org/2000/svg">
  <sodipodi:namedview
     id="namedview13735"
     pagecolor="#ffffff"
     bordercolor="#111111"
     borderopacity="1"
     inkscape:pageshadow="0"
     inkscape:pageopacity="0"
     inkscape:pagecheckerboard="1"
     inkscape:document-units="mm"
     showgrid="false"
     width="720mm"
     inkscape:snap-global="false"
     inkscape:zoom="3.9408307"
     inkscape:cx="36.667396"
     inkscape:cy="63.438402"
     inkscape:window-width="1920"
     inkscape:window-height="986"
     inkscape:window-x="-11"
     inkscape:window-y="-11"
     inkscape:window-maximized="1"
     inkscape:current-layer="layer1-2"
     fit-margin-top="0"
     fit-margin-left="0"
     fit-margin-right="0"
     fit-margin-bottom="0" />
  <defs
     id="defs13730" />
  <g
     inkscape:label="Lager 1"
     inkscape:groupmode="layer"
     id="layer1"
     transform="translate(-400.11569,-384.781)">
    <g
       inkscape:label="Lager 1"
       id="layer1-2"
       transform="translate(157.79665,97.157039)">
      <path
         id="path36418"
         style="fill:#eaf6fd;fill-opacity:1;stroke:#000000;stroke-width:0.1;stroke-linecap:butt;stroke-linejoin:miter;stroke-miterlimit:4;stroke-dasharray:none;stroke-opacity:1"
         d="m 247.37082,287.67411 0.0672,1.98076 0.47026,0.53691 -0.0336,3.18896 c -1.93003,0.0134 -5.42563,2.23278 -5.43843,5.40483 l -0.0672,16.58349 c 0.2045,2.12082 1.67597,3.70068 3.55844,5.2033 v 0.83922 h 14.53555 v -0.83922 c 1.89606,-0.71122 3.82987,-3.49135 3.72639,-5.2033 v -16.58349 c 0,-2.53747 -2.36623,-5.06442 -5.30407,-5.53919 v -2.98742 l 0.36948,-0.46974 -0.0336,-2.08152 z m 9.34258,1.96422 0.008,3.58428 -0.93018,-0.002 c -0.002,-0.58737 -0.87421,-0.51167 -1.7477,-0.51728 l 0.002,-1.75545 -1.14153,0.002 v 1.75131 c -0.85484,0.0147 -1.71127,-0.0753 -1.71824,0.52917 h -0.98341 l -0.002,-3.55844 z m -8.9023,11.81478 c 0.86495,0.0267 5.58421,0.86321 7.85172,2.435 3.54461,2.45705 3.85535,7.32382 3.28972,7.28482 -2.85235,-5.04483 -5.32215,-6.39317 -7.82175,-7.11688 3.18179,2.16786 5.24041,4.97298 6.81457,7.85534 0.14471,0.60779 -5.12265,0.77565 -7.25072,-2.1823 -1.7118,-2.37935 -3.02152,-8.25789 -3.02152,-8.25789 0,-0.0146 0.0485,-0.0208 0.13798,-0.0181 z" />
    </g>
  </g>
</svg>
