<?xml version="1.0" encoding="UTF-8" standalone="no"?>
<!-- Created with Inkscape (http://www.inkscape.org/) -->

<svg
   width="285.9238mm"
   height="285.90982mm"
   viewBox="0 0 285.9238 285.90982"
   version="1.1"
   id="svg5"
   inkscape:version="1.1.1 (3bf5ae0d25, 2021-09-20)"
   sodipodi:docname="forgasning.svg"
   xmlns:inkscape="http://www.inkscape.org/namespaces/inkscape"
   xmlns:sodipodi="http://sodipodi.sourceforge.net/DTD/sodipodi-0.dtd"
   xmlns="http://www.w3.org/2000/svg"
   xmlns:svg="http://www.w3.org/2000/svg">
  <sodipodi:namedview
     id="namedview7"
     pagecolor="#505050"
     bordercolor="#eeeeee"
     borderopacity="1"
     inkscape:pageshadow="0"
     inkscape:pageopacity="0"
     inkscape:pagecheckerboard="0"
     inkscape:document-units="mm"
     showgrid="false"
     fit-margin-top="0"
     fit-margin-left="0"
     fit-margin-right="0"
     fit-margin-bottom="0"
     inkscape:zoom="0.53969309"
     inkscape:cx="530.85727"
     inkscape:cy="419.68298"
     inkscape:window-width="1920"
     inkscape:window-height="1017"
     inkscape:window-x="-8"
     inkscape:window-y="-8"
     inkscape:window-maximized="1"
     inkscape:current-layer="g65682"
     inkscape:snap-nodes="false"
     inkscape:snap-others="false"
     inkscape:snap-page="true" />
  <defs
     id="defs2" />
  <g
     inkscape:label="Lager 1"
     inkscape:groupmode="layer"
     id="layer1"
     transform="translate(-55.518622,-12.356939)">
    <g
       id="g65682"
       transform="translate(92.242936)">
      <g
         id="g106939">
        <rect
           style="fill:#effdff;fill-opacity:1;stroke:#7c8c95;stroke-width:0;stroke-linejoin:round;stroke-miterlimit:4;stroke-dasharray:none;stroke-opacity:1;paint-order:normal"
           id="rect76478"
           width="51.073158"
           height="50.790207"
           x="42.219795"
           y="50.026535"
           ry="20.12442" />
        <path
           d="m 58.376887,64.227475 q 0.615031,0 1.076304,0.461274 0.4869,0.435647 0.4869,1.101931 v 14.812002 q 0,0.666283 -0.4869,1.127557 -0.486899,0.435647 -1.127557,0.435647 -0.717536,0 -1.153184,-0.435647 -0.435647,-0.461274 -0.435647,-1.127557 V 65.79068 q 0,-0.666284 0.461274,-1.101931 0.461273,-0.461274 1.17881,-0.461274 z m 11.352451,0 q 0.717536,0 1.153183,0.461274 0.435648,0.435647 0.435648,1.101931 v 14.812002 q 0,0.666283 -0.461274,1.127557 -0.435647,0.435647 -1.17881,0.435647 -0.615031,0 -1.101931,-0.435647 -0.461273,-0.461274 -0.461273,-1.127557 V 65.79068 q 0,-0.666284 0.4869,-1.101931 0.486899,-0.461274 1.127557,-0.461274 z m -11.42933,7.457254 h 11.42933 v 2.947024 h -11.42933 z"
           style="font-weight:bold;font-size:25.6263px;line-height:1.25;font-family:Quicksand;-inkscape-font-specification:'Quicksand Bold';fill:#248cd1;stroke-width:0.64066"
           id="path104482" />
        <path
           d="m 80.869089,85.458865 q 0.399771,0 0.666284,0.266514 0.266514,0.266513 0.266514,0.666284 0,0.383113 -0.266514,0.649627 -0.266513,0.249856 -0.666284,0.249856 h -5.663414 q -0.433085,0 -0.682941,-0.266513 -0.249857,-0.266514 -0.249857,-0.682941 0,-0.416428 0.299828,-0.732913 l 3.631248,-3.881104 q 0.616313,-0.666284 0.966112,-1.365883 0.366456,-0.699598 0.366456,-1.215968 0,-0.832855 -0.483056,-1.332568 -0.483056,-0.51637 -1.282597,-0.51637 -0.316484,0 -0.649626,0.149914 -0.333142,0.149914 -0.649627,0.416427 -0.299828,0.266514 -0.566342,0.616313 -0.199885,0.266514 -0.39977,0.333142 -0.199885,0.06663 -0.366456,0.06663 -0.366457,0 -0.682942,-0.266513 -0.299827,-0.283171 -0.299827,-0.649627 0,-0.283171 0.183228,-0.549684 0.199885,-0.266514 0.483056,-0.549685 0.416427,-0.416427 0.932797,-0.732912 0.51637,-0.316485 1.066055,-0.483056 0.549684,-0.183228 1.066054,-0.183228 1.116026,0 1.932224,0.449742 0.832855,0.433084 1.282597,1.249282 0.449741,0.799541 0.449741,1.89891 0,0.91614 -0.549684,2.048823 -0.533027,1.116026 -1.449168,2.098795 l -2.248708,2.398622 -0.183228,-0.149914 z"
           style="font-size:16.6571px;line-height:1.25;font-family:Quicksand;-inkscape-font-specification:Quicksand;baseline-shift:sub;fill:#248cd1;stroke-width:0.64066"
           id="path104484" />
      </g>
      <g
         id="g106944">
        <rect
           style="fill:#effdff;fill-opacity:1;stroke:#7c8c95;stroke-width:0;stroke-linejoin:round;stroke-miterlimit:4;stroke-dasharray:none;stroke-opacity:1;paint-order:normal"
           id="rect76480"
           width="65.079369"
           height="64.513466"
           x="66.412346"
           y="100.95822"
           ry="25.561937" />
        <path
           d="m 94.96892,122.79092 q 0.849005,0.42316 0.979622,1.33457 0.16327,0.91141 -0.457157,1.66007 -0.424502,0.58591 -1.110238,0.65102 -0.653081,0.0651 -1.338816,-0.26041 -0.783697,-0.35806 -1.665356,-0.55336 -0.849005,-0.1953 -1.795973,-0.1953 -1.763318,0 -3.167442,0.55336 -1.37147,0.55335 -2.351092,1.59496 -0.979621,1.00907 -1.502086,2.40874 -0.48981,1.39967 -0.48981,3.09229 0,1.98558 0.555119,3.45035 0.587772,1.46477 1.600048,2.44128 1.012275,0.97651 2.383745,1.46477 1.37147,0.4557 2.971518,0.4557 0.881659,0 1.763319,-0.16275 0.881659,-0.16275 1.69801,-0.58591 0.685735,-0.3255 1.338816,-0.22784 0.685736,0.0976 1.142892,0.68355 0.653081,0.81376 0.457157,1.69263 -0.163271,0.8463 -0.979622,1.23691 -0.849005,0.42316 -1.763319,0.71611 -0.881659,0.26041 -1.795972,0.39061 -0.914313,0.16275 -1.861281,0.16275 -2.351091,0 -4.473604,-0.74866 -2.089859,-0.74866 -3.755215,-2.21343 -1.632702,-1.46477 -2.57967,-3.64565 -0.946968,-2.21343 -0.946968,-5.11042 0,-2.50638 0.849005,-4.62216 0.88166,-2.11578 2.449054,-3.64565 1.600049,-1.56242 3.755215,-2.40874 2.155167,-0.87886 4.702183,-0.87886 1.436779,0 2.808248,0.32551 1.371471,0.32551 2.57967,0.94396 z"
           style="font-weight:bold;font-size:32.6022px;line-height:1.25;font-family:Quicksand;-inkscape-font-specification:'Quicksand Bold';fill:#248cd1;stroke-width:0.815057"
           id="path105273" />
        <path
           d="m 120.47169,133.07686 q 0,2.44128 -0.81634,4.55706 -0.81636,2.11578 -2.31845,3.74331 -1.46943,1.59496 -3.52663,2.50637 -2.02455,0.91142 -4.44095,0.91142 -2.4164,0 -4.44095,-0.91142 -2.02455,-0.91141 -3.52664,-2.50637 -1.46943,-1.62753 -2.285781,-3.74331 -0.816351,-2.11578 -0.816351,-4.55706 0,-2.44128 0.816351,-4.55706 0.816351,-2.11578 2.285781,-3.71075 1.50209,-1.62752 3.52664,-2.53894 2.02455,-0.91141 4.44095,-0.91141 2.4164,0 4.44095,0.91141 2.0572,0.91142 3.52663,2.53894 1.50209,1.59497 2.31845,3.71075 0.81634,2.11578 0.81634,4.55706 z m -4.24502,0 q 0,-2.18088 -0.88166,-3.9386 -0.88166,-1.79027 -2.41639,-2.83189 -1.53475,-1.04161 -3.5593,-1.04161 -2.02455,0 -3.55929,1.04161 -1.53474,1.04162 -2.4164,2.79934 -0.849,1.75773 -0.849,3.97115 0,2.18088 0.849,3.97115 0.88166,1.75773 2.4164,2.79934 1.53474,1.04161 3.55929,1.04161 2.02455,0 3.5593,-1.04161 1.53473,-1.04161 2.41639,-2.79934 0.88166,-1.79027 0.88166,-3.97115 z"
           style="font-weight:bold;font-size:32.6022px;line-height:1.25;font-family:Quicksand;-inkscape-font-specification:'Quicksand Bold';fill:#248cd1;stroke-width:0.815057"
           id="path105275" />
      </g>
      <g
         id="g106934">
        <rect
           style="fill:#effdff;fill-opacity:1;stroke:#7c8c95;stroke-width:0;stroke-linejoin:round;stroke-miterlimit:4;stroke-dasharray:none;stroke-opacity:1;paint-order:normal"
           id="rect69415"
           width="38.057285"
           height="37.491379"
           x="79.852654"
           y="12.252204"
           ry="14.855074" />
        <text
           xml:space="preserve"
           style="font-size:16.4876px;line-height:1.25;font-family:Quicksand;-inkscape-font-specification:Quicksand;fill:#248cd1;fill-opacity:1;stroke-width:0.412191"
           x="85.57045"
           y="36.193562"
           id="text71722-8"><tspan
             sodipodi:role="line"
             id="tspan71720-1"
             style="font-style:normal;font-variant:normal;font-weight:bold;font-stretch:normal;font-family:Quicksand;-inkscape-font-specification:'Quicksand Bold';fill:#248cd1;fill-opacity:1;stroke-width:0.412191"
             x="85.57045"
             y="36.193562">CH<tspan
   style="font-size:10.7169px;baseline-shift:sub;fill:#248cd1;fill-opacity:1;stroke-width:0.412191"
   id="tspan75628">4</tspan></tspan></text>
        <rect
           style="fill:#effdff;fill-opacity:1;stroke:#7c8c95;stroke-width:0;stroke-linejoin:round;stroke-miterlimit:4;stroke-dasharray:none;stroke-opacity:1;paint-order:normal"
           id="rect100202"
           width="38.057285"
           height="37.491379"
           x="79.852654"
           y="12.252204"
           ry="14.855074" />
        <path
           d="m 94.885942,25.212818 q 0.428677,0.214339 0.494628,0.675992 0.08244,0.461653 -0.230827,0.840868 -0.214339,0.296776 -0.560578,0.329752 -0.329752,0.03298 -0.675992,-0.131901 -0.395702,-0.181364 -0.840868,-0.280289 -0.428677,-0.09893 -0.906818,-0.09893 -0.89033,0 -1.599297,0.280289 -0.692479,0.280289 -1.187107,0.807893 -0.494628,0.511115 -0.75843,1.220082 -0.247314,0.708967 -0.247314,1.566322 0,1.005744 0.28029,1.747686 0.296776,0.741942 0.807892,1.23657 0.511116,0.494628 1.203595,0.741942 0.692479,0.230826 1.500371,0.230826 0.445166,0 0.890331,-0.08244 0.445165,-0.08244 0.857355,-0.296777 0.34624,-0.164876 0.675992,-0.115413 0.346239,0.04946 0.577066,0.34624 0.329752,0.41219 0.230826,0.857355 -0.08244,0.428678 -0.494628,0.626529 -0.428677,0.214339 -0.89033,0.362727 -0.445166,0.131901 -0.906818,0.197851 -0.461653,0.08244 -0.939794,0.08244 -1.187107,0 -2.258801,-0.379215 -1.055206,-0.379214 -1.896074,-1.121156 -0.82438,-0.741942 -1.30252,-1.846612 -0.478141,-1.121156 -0.478141,-2.588553 0,-1.269545 0.428678,-2.341239 0.445165,-1.071694 1.23657,-1.846611 0.807892,-0.791405 1.896074,-1.220083 1.088182,-0.445165 2.374214,-0.445165 0.725455,0 1.417934,0.164876 0.692479,0.164876 1.302521,0.47814 z"
           style="font-weight:bold;font-size:16.4876px;line-height:1.25;font-family:Quicksand;-inkscape-font-specification:'Quicksand Bold';fill:#248cd1;stroke-width:0.412191"
           id="path104457" />
        <path
           d="m 98.199931,24.65224 q 0.395703,0 0.69248,0.296777 0.313264,0.280289 0.313264,0.708967 v 9.529833 q 0,0.428677 -0.313264,0.725454 -0.313265,0.280289 -0.725455,0.280289 -0.461653,0 -0.741942,-0.280289 -0.280289,-0.296777 -0.280289,-0.725454 v -9.529833 q 0,-0.428678 0.296777,-0.708967 0.296776,-0.296777 0.758429,-0.296777 z m 7.304009,0 q 0.46165,0 0.74194,0.296777 0.28029,0.280289 0.28029,0.708967 v 9.529833 q 0,0.428677 -0.29677,0.725454 -0.28029,0.280289 -0.75843,0.280289 -0.39571,0 -0.70897,-0.280289 -0.29678,-0.296777 -0.29678,-0.725454 v -9.529833 q 0,-0.428678 0.31327,-0.708967 0.31326,-0.296777 0.72545,-0.296777 z m -7.353471,4.797892 h 7.353471 v 1.896074 h -7.353471 z"
           style="font-weight:bold;font-size:16.4876px;line-height:1.25;font-family:Quicksand;-inkscape-font-specification:'Quicksand Bold';fill:#248cd1;stroke-width:0.412191"
           id="path104459" />
        <path
           d="m 111.93162,39.49108 q -0.26793,0 -0.45011,-0.182187 -0.18219,-0.192904 -0.18219,-0.471544 v -5.036942 l 0.22505,0.05358 -2.06836,2.561339 -0.0536,-0.13932 h 3.79378 q 0.25721,0 0.42868,0.171471 0.17147,0.17147 0.17147,0.428676 0,0.246489 -0.17147,0.417959 -0.17147,0.160753 -0.42868,0.160753 h -4.68329 q -0.22505,0 -0.43939,-0.182187 -0.20362,-0.182187 -0.20362,-0.45011 0,-0.235771 0.16075,-0.428676 l 3.38654,-4.14744 q 0.0857,-0.117886 0.22506,-0.182187 0.13932,-0.07502 0.31079,-0.07502 0.27864,0 0.45011,0.192905 0.18219,0.182187 0.18219,0.460826 v 6.194368 q 0,0.27864 -0.19291,0.471544 -0.18218,0.182187 -0.46082,0.182187 z"
           style="font-size:10.7169px;line-height:1.25;font-family:Quicksand;-inkscape-font-specification:Quicksand;baseline-shift:sub;fill:#248cd1;stroke-width:0.412191"
           id="path104461" />
      </g>
      <g
         id="g106991">
        <rect
           style="fill:#c9f0fe;fill-opacity:1;stroke:#7c8c95;stroke-width:0;stroke-linejoin:round;stroke-miterlimit:4;stroke-dasharray:none;stroke-opacity:1;paint-order:normal"
           id="rect85314"
           width="161.99104"
           height="6.083509"
           x="17.036907"
           y="292.33969"
           ry="0" />
        <path
           style="fill:#ffffff;stroke:#000000;stroke-width:0;stroke-linecap:butt;stroke-linejoin:miter;stroke-opacity:1;stroke-miterlimit:4;stroke-dasharray:none"
           d="m 142.52691,289.3687 v -71.16288 c 0.98784,-5.91092 2.4932,-11.63701 12.30849,-14.39527 v -1.3794 l 1.50112,-0.86667 c -0.0983,-1.58841 0.12936,-3.88885 -3.81878,-3.81878 H 141.8549 c -2.61662,0.0582 -3.34425,1.37565 -3.24464,3.24464 v 76.70651 c -0.003,1.93076 -3.11967,6.57307 -6.84268,6.84268 h -2.1766 v 5.12627 h -14.65576 v -25.91017 c -0.2566,-2.75466 -1.7536,-5.34089 -4.51289,-7.07009 l -0.0151,-0.5329 h 1.62681 v -2.37593 h 3.47637 v -8.45332 h 2.70106 v 8.45332 h 2.57601 v -15.40605 c 0.13474,-2.844 2.28207,-4.71166 4.30169,-4.95194 h 3.20125 v 2.75108 h -2.90113 c -0.85405,0.0723 -1.89566,1.29387 -1.87574,2.37593 v 15.21967 h 3.86259 v 2.37114 h 2.19218 v 24.73004 c 5.03206,-0.43011 5.20527,-2.80376 5.23486,-5.23486 v -75.81629 c 0.19117,-2.78557 1.1855,-5.22109 5.87276,-5.87277 h 13.22495 c 3.90813,0.1063 5.92778,2.95826 6.15634,7.57794 l 1.28489,0.74183 v 1.45054 c 11.12724,3.08119 12.10114,10.91107 12.13506,13.79641 v 71.99817 z"
           id="path87082"
           sodipodi:nodetypes="cccccccccccccccccccccccccccccccccccccccccccc" />
        <rect
           style="fill:#3c7ad1;fill-opacity:1;stroke:#7c8c95;stroke-width:0;stroke-linejoin:round;stroke-miterlimit:4;stroke-dasharray:none;stroke-opacity:1;paint-order:normal"
           id="rect89409"
           width="1.7463548"
           height="16.654261"
           x="121.68285"
           y="269.75259" />
        <rect
           style="fill:#3c7ad1;fill-opacity:1;stroke:#7c8c95;stroke-width:0;stroke-linejoin:round;stroke-miterlimit:4;stroke-dasharray:none;stroke-opacity:1;paint-order:normal"
           id="rect91012"
           width="1.7463548"
           height="16.654261"
           x="125.26075"
           y="269.75259" />
        <path
           style="fill:#c4e6f8;stroke:#438bc9;stroke-width:5.565;stroke-linecap:butt;stroke-linejoin:miter;stroke-miterlimit:4;stroke-dasharray:none;stroke-opacity:1;fill-opacity:1"
           d="m 25.462955,286.66241 v -22.14888 c 8.025063,-16.76809 69.278809,-21.21438 83.654655,0 v 21.80815 z"
           id="path91142"
           sodipodi:nodetypes="ccccc" />
        <path
           id="rect91493"
           style="fill:#d5e2f9;stroke:#7c8c95;stroke-width:0;stroke-linejoin:round"
           d="m 94.465262,178.21806 h 8.689178 v 74.24138 c -2.35775,-1.4765 -4.773859,-3.46468 -8.689178,-3.81897 z"
           sodipodi:nodetypes="ccccc" />
        <rect
           style="fill:#3f8bbe;fill-opacity:1;stroke:#7c8c95;stroke-width:0;stroke-linejoin:round;stroke-miterlimit:4;stroke-dasharray:none;stroke-opacity:1;paint-order:normal"
           id="rect93667"
           width="12.394859"
           height="3.0667696"
           x="92.463348"
           y="182.0941"
           ry="1.2352266" />
        <rect
           style="fill:#3f8bbe;fill-opacity:1;stroke:#7c8c95;stroke-width:0;stroke-linejoin:round;stroke-miterlimit:4;stroke-dasharray:none;stroke-opacity:1;paint-order:normal"
           id="rect97105"
           width="12.394859"
           height="3.0667696"
           x="92.463348"
           y="191.20923"
           ry="1.2352266" />
        <rect
           style="fill:#3f8bbe;fill-opacity:1;stroke:#7c8c95;stroke-width:0;stroke-linejoin:round;stroke-miterlimit:4;stroke-dasharray:none;stroke-opacity:1;paint-order:normal"
           id="rect97107"
           width="12.394859"
           height="3.0667696"
           x="92.463348"
           y="200.40953"
           ry="1.2352266" />
        <rect
           style="fill:#3f8bbe;fill-opacity:1;stroke:#7c8c95;stroke-width:0;stroke-linejoin:round;stroke-miterlimit:4;stroke-dasharray:none;stroke-opacity:1;paint-order:normal"
           id="rect97109"
           width="12.394859"
           height="3.0667696"
           x="92.463348"
           y="209.48206"
           ry="1.2352266" />
        <rect
           style="fill:#3f8bbe;fill-opacity:1;stroke:#7c8c95;stroke-width:0;stroke-linejoin:round;stroke-miterlimit:4;stroke-dasharray:none;stroke-opacity:1;paint-order:normal"
           id="rect97111"
           width="12.394859"
           height="3.0667696"
           x="92.463348"
           y="218.4268"
           ry="1.2352266" />
        <rect
           style="fill:#3f8bbe;fill-opacity:1;stroke:#7c8c95;stroke-width:0;stroke-linejoin:round;stroke-miterlimit:4;stroke-dasharray:none;stroke-opacity:1;paint-order:normal"
           id="rect97113"
           width="12.394859"
           height="3.0667696"
           x="92.463348"
           y="227.58452"
           ry="1.2352266" />
        <rect
           style="fill:#3f8bbe;fill-opacity:1;stroke:#7c8c95;stroke-width:0;stroke-linejoin:round;stroke-miterlimit:4;stroke-dasharray:none;stroke-opacity:1;paint-order:normal"
           id="rect97115"
           width="12.394859"
           height="3.0667696"
           x="92.463348"
           y="236.52927"
           ry="1.2352266" />
        <rect
           style="fill:#3f8bbe;fill-opacity:1;stroke:#7c8c95;stroke-width:0;stroke-linejoin:round;stroke-miterlimit:4;stroke-dasharray:none;stroke-opacity:1;paint-order:normal"
           id="rect97117"
           width="12.394859"
           height="3.0667696"
           x="92.463348"
           y="245.77217"
           ry="1.2352266" />
        <rect
           style="fill:#effdff;fill-opacity:1;stroke:#7c8c95;stroke-width:0;stroke-linejoin:round;stroke-miterlimit:4;stroke-dasharray:none;stroke-opacity:1;paint-order:normal"
           id="rect100216"
           width="24.800087"
           height="24.431314"
           x="57.946499"
           y="257.12494"
           ry="9.6803312" />
        <path
           d="m 67.742966,265.57074 q 0.279348,0.13968 0.322326,0.44052 0.05372,0.30083 -0.150419,0.54795 -0.139675,0.19339 -0.365302,0.21488 -0.214883,0.0215 -0.440511,-0.086 -0.25786,-0.11819 -0.547953,-0.18265 -0.279348,-0.0645 -0.590929,-0.0645 -0.580185,0 -1.042184,0.18265 -0.451255,0.18265 -0.773581,0.52647 -0.322325,0.33306 -0.494232,0.79506 -0.161162,0.462 -0.161162,1.0207 0,0.65539 0.182651,1.13888 0.193395,0.48349 0.526464,0.80581 0.33307,0.32233 0.784325,0.48349 0.451255,0.15042 0.977719,0.15042 0.290093,0 0.580185,-0.0537 0.290093,-0.0537 0.558697,-0.1934 0.225628,-0.10744 0.440511,-0.0752 0.225627,0.0322 0.376046,0.22563 0.214884,0.26861 0.150418,0.5587 -0.05372,0.27935 -0.322325,0.40828 -0.279348,0.13967 -0.580185,0.23637 -0.290093,0.086 -0.590929,0.12893 -0.300837,0.0537 -0.612418,0.0537 -0.77358,0 -1.471951,-0.24712 -0.687627,-0.24711 -1.23558,-0.7306 -0.537208,-0.48349 -0.848789,-1.20335 -0.311581,-0.7306 -0.311581,-1.68683 0,-0.8273 0.279349,-1.52567 0.290092,-0.69837 0.805812,-1.20335 0.526464,-0.51572 1.23558,-0.79507 0.709115,-0.29009 1.54716,-0.29009 0.472744,0 0.923999,0.10744 0.451255,0.10744 0.848789,0.31158 z"
           style="font-weight:bold;font-size:16.4876px;line-height:1.25;font-family:Quicksand;-inkscape-font-specification:'Quicksand Bold';fill:#248cd1;stroke-width:0.268605"
           id="path105581" />
        <path
           d="m 69.902532,265.20544 q 0.257861,0 0.451256,0.1934 0.204139,0.18265 0.204139,0.462 v 6.21013 q 0,0.27935 -0.204139,0.47274 -0.20414,0.18265 -0.472744,0.18265 -0.300837,0 -0.483487,-0.18265 -0.182651,-0.19339 -0.182651,-0.47274 v -6.21013 q 0,-0.27935 0.193395,-0.462 0.193395,-0.1934 0.494231,-0.1934 z m 4.759667,0 q 0.300835,0 0.483486,0.1934 0.182652,0.18265 0.182652,0.462 v 6.21013 q 0,0.27935 -0.193391,0.47274 -0.182651,0.18265 -0.494232,0.18265 -0.257865,0 -0.462001,-0.18265 -0.193398,-0.19339 -0.193398,-0.47274 v -6.21013 q 0,-0.27935 0.204143,-0.462 0.204137,-0.1934 0.472741,-0.1934 z M 69.8703,268.332 h 4.791899 v 1.23558 H 69.8703 Z"
           style="font-weight:bold;font-size:16.4876px;line-height:1.25;font-family:Quicksand;-inkscape-font-specification:'Quicksand Bold';fill:#248cd1;stroke-width:0.268605"
           id="path105583" />
        <path
           d="m 78.850806,274.8752 q -0.174597,0 -0.293315,-0.11873 -0.118724,-0.1257 -0.118724,-0.30728 v -3.28233 l 0.146654,0.0349 -1.34785,1.6691 -0.03493,-0.0908 h 2.472222 q 0.167612,0 0.27935,0.11174 0.111739,0.11174 0.111739,0.27934 0,0.16063 -0.111739,0.27237 -0.111738,0.10475 -0.27935,0.10475 H 76.62299 q -0.146654,0 -0.286329,-0.11872 -0.132689,-0.11872 -0.132689,-0.29331 0,-0.15364 0.104753,-0.27935 l 2.206844,-2.70269 q 0.05585,-0.0768 0.14666,-0.11872 0.09079,-0.0489 0.202527,-0.0489 0.181576,0 0.293315,0.12571 0.118724,0.11872 0.118724,0.3003 v 4.03657 q 0,0.18157 -0.12571,0.30728 -0.118718,0.11872 -0.300294,0.11872 z"
           style="font-size:10.7169px;line-height:1.25;font-family:Quicksand;-inkscape-font-specification:Quicksand;baseline-shift:sub;fill:#248cd1;stroke-width:0.268605"
           id="path105585" />
        <g
           id="g100242"
           transform="matrix(0.24628684,0,0,0.24628684,27.37183,268.81481)">
          <g
             id="g100240"
             transform="translate(-37.632854,0.99033828)">
            <g
               id="g100238"
               transform="translate(37.774331,-1.1318152)">
              <rect
                 style="fill:#effdff;fill-opacity:1;stroke:#7c8c95;stroke-width:0;stroke-linejoin:round;stroke-miterlimit:4;stroke-dasharray:none;stroke-opacity:1;paint-order:normal"
                 id="rect100230"
                 width="38.057285"
                 height="37.491379"
                 x="79.711174"
                 y="12.393681"
                 ry="14.855074" />
              <path
                 d="m 94.744465,25.354295 q 0.428677,0.214339 0.494628,0.675992 0.08244,0.461653 -0.230827,0.840868 -0.214339,0.296776 -0.560578,0.329752 -0.329752,0.03298 -0.675992,-0.131901 -0.395702,-0.181364 -0.840868,-0.280289 -0.428677,-0.09893 -0.906818,-0.09893 -0.89033,0 -1.599297,0.280289 -0.692479,0.280289 -1.187107,0.807893 -0.494628,0.511115 -0.75843,1.220082 -0.247314,0.708967 -0.247314,1.566322 0,1.005744 0.28029,1.747686 0.296776,0.741942 0.807892,1.23657 0.511116,0.494628 1.203595,0.741942 0.692479,0.230826 1.500371,0.230826 0.445166,0 0.890331,-0.08244 0.445165,-0.08244 0.857355,-0.296777 0.34624,-0.164876 0.675992,-0.115413 0.346239,0.04946 0.577066,0.34624 0.329752,0.41219 0.230826,0.857355 -0.08244,0.428678 -0.494628,0.626529 -0.428677,0.214339 -0.89033,0.362727 -0.445166,0.131901 -0.906818,0.197851 -0.461653,0.08244 -0.939794,0.08244 -1.187107,0 -2.258801,-0.379215 -1.055206,-0.379214 -1.896074,-1.121156 -0.82438,-0.741942 -1.30252,-1.846612 -0.478141,-1.121156 -0.478141,-2.588553 0,-1.269545 0.428678,-2.341239 0.445165,-1.071694 1.23657,-1.846611 0.807892,-0.791405 1.896074,-1.220083 1.088182,-0.445165 2.374214,-0.445165 0.725455,0 1.417934,0.164876 0.692479,0.164876 1.302521,0.47814 z"
                 style="font-weight:bold;font-size:16.4876px;line-height:1.25;font-family:Quicksand;-inkscape-font-specification:'Quicksand Bold';fill:#248cd1;stroke-width:0.412191"
                 id="path106724" />
              <path
                 d="m 98.058454,24.793717 q 0.395703,0 0.69248,0.296777 0.313264,0.280289 0.313264,0.708967 v 9.529833 q 0,0.428677 -0.313264,0.725454 -0.313265,0.280289 -0.725455,0.280289 -0.461653,0 -0.741942,-0.280289 -0.280289,-0.296777 -0.280289,-0.725454 v -9.529833 q 0,-0.428678 0.296777,-0.708967 0.296776,-0.296777 0.758429,-0.296777 z m 7.304006,0 q 0.46165,0 0.74194,0.296777 0.28029,0.280289 0.28029,0.708967 v 9.529833 q 0,0.428677 -0.29677,0.725454 -0.28029,0.280289 -0.75843,0.280289 -0.39571,0 -0.70897,-0.280289 -0.29678,-0.296777 -0.29678,-0.725454 v -9.529833 q 0,-0.428678 0.31327,-0.708967 0.31326,-0.296777 0.72545,-0.296777 z m -7.353468,4.797892 h 7.353468 v 1.896074 h -7.353468 z"
                 style="font-weight:bold;font-size:16.4876px;line-height:1.25;font-family:Quicksand;-inkscape-font-specification:'Quicksand Bold';fill:#248cd1;stroke-width:0.412191"
                 id="path106726" />
              <path
                 d="m 111.79014,39.632557 q -0.26793,0 -0.45011,-0.182187 -0.18219,-0.192904 -0.18219,-0.471544 v -5.036942 l 0.22505,0.05358 -2.06836,2.561339 -0.0536,-0.13932 h 3.79378 q 0.25721,0 0.42868,0.171471 0.17147,0.17147 0.17147,0.428676 0,0.246489 -0.17147,0.417959 -0.17147,0.160753 -0.42868,0.160753 h -4.68329 q -0.22505,0 -0.43939,-0.182187 -0.20362,-0.182187 -0.20362,-0.45011 0,-0.235771 0.16075,-0.428676 l 3.38654,-4.14744 q 0.0857,-0.117886 0.22506,-0.182187 0.13932,-0.07502 0.31079,-0.07502 0.27864,0 0.45011,0.192905 0.18219,0.182187 0.18219,0.460826 v 6.194368 q 0,0.27864 -0.19291,0.471544 -0.18218,0.182187 -0.46082,0.182187 z"
                 style="font-size:10.7169px;line-height:1.25;font-family:Quicksand;-inkscape-font-specification:Quicksand;baseline-shift:sub;fill:#248cd1;stroke-width:0.412191"
                 id="path106728" />
            </g>
          </g>
        </g>
        <rect
           style="fill:#effdff;fill-opacity:1;stroke:#7c8c95;stroke-width:0;stroke-linejoin:round;stroke-miterlimit:4;stroke-dasharray:none;stroke-opacity:1;paint-order:normal"
           id="rect100244"
           width="9.3730087"
           height="9.233633"
           x="85.768059"
           y="258.84079"
           ry="3.6586092" />
        <path
           d="m 89.470563,262.03283 q 0.105577,0.0528 0.12182,0.16649 0.0203,0.1137 -0.05685,0.20709 -0.05279,0.0731 -0.138063,0.0812 -0.08121,0.008 -0.166488,-0.0325 -0.09746,-0.0447 -0.207095,-0.069 -0.105578,-0.0244 -0.223337,-0.0244 -0.219277,0 -0.393886,0.069 -0.170549,0.069 -0.292369,0.19898 -0.12182,0.12588 -0.186791,0.30049 -0.06091,0.17461 -0.06091,0.38576 0,0.2477 0.06903,0.43043 0.07309,0.18274 0.198973,0.30456 0.125882,0.12182 0.29643,0.18273 0.170548,0.0568 0.369522,0.0568 0.109638,0 0.219276,-0.0203 0.109639,-0.0203 0.211156,-0.0731 0.08527,-0.0406 0.166488,-0.0284 0.08527,0.0122 0.142123,0.0853 0.08121,0.10152 0.05685,0.21115 -0.0203,0.10558 -0.121821,0.15431 -0.105577,0.0528 -0.219276,0.0893 -0.109639,0.0325 -0.223337,0.0487 -0.1137,0.0203 -0.231459,0.0203 -0.292369,0 -0.556313,-0.0934 -0.259884,-0.0934 -0.466978,-0.27612 -0.203034,-0.18273 -0.320794,-0.4548 -0.11776,-0.27613 -0.11776,-0.63753 0,-0.31267 0.105578,-0.57661 0.109638,-0.26395 0.304551,-0.4548 0.198973,-0.19491 0.466978,-0.30049 0.268005,-0.10964 0.584738,-0.10964 0.17867,0 0.349218,0.0406 0.170549,0.0406 0.320794,0.11776 z"
           style="font-weight:bold;font-size:16.4876px;line-height:1.25;font-family:Quicksand;-inkscape-font-specification:'Quicksand Bold';fill:#248cd1;stroke-width:0.101517"
           id="path105296" />
        <path
           d="m 90.286755,261.89477 q 0.09746,0 0.170548,0.0731 0.07715,0.069 0.07715,0.17461 v 2.34707 q 0,0.10558 -0.07715,0.17867 -0.07715,0.069 -0.17867,0.069 -0.113699,0 -0.18273,-0.069 -0.06903,-0.0731 -0.06903,-0.17867 v -2.34707 q 0,-0.10558 0.07309,-0.17461 0.07309,-0.0731 0.186791,-0.0731 z m 1.79888,0 q 0.113699,0 0.18273,0.0731 0.06903,0.069 0.06903,0.17461 v 2.34707 q 0,0.10558 -0.07309,0.17867 -0.06903,0.069 -0.186792,0.069 -0.09746,0 -0.17461,-0.069 -0.07309,-0.0731 -0.07309,-0.17867 v -2.34707 q 0,-0.10558 0.07715,-0.17461 0.07715,-0.0731 0.178668,-0.0731 z m -1.811062,1.18165 h 1.811062 v 0.46698 h -1.811062 z"
           style="font-weight:bold;font-size:16.4876px;line-height:1.25;font-family:Quicksand;-inkscape-font-specification:'Quicksand Bold';fill:#248cd1;stroke-width:0.101517"
           id="path105298" />
        <path
           d="m 93.668688,265.54938 q -0.06599,0 -0.110856,-0.0449 -0.04487,-0.0475 -0.04487,-0.11614 v -1.24053 l 0.05543,0.0132 -0.50941,0.63082 -0.0132,-0.0343 h 0.934358 q 0.06335,0 0.105579,0.0422 0.04223,0.0422 0.04223,0.10558 0,0.0607 -0.04223,0.10293 -0.04223,0.0396 -0.105579,0.0396 h -1.153432 q -0.05543,0 -0.108216,-0.0449 -0.05015,-0.0449 -0.05015,-0.11085 0,-0.0581 0.03959,-0.10558 l 0.834061,-1.02146 q 0.02111,-0.029 0.05543,-0.0449 0.03431,-0.0185 0.07654,-0.0185 0.06863,0 0.110856,0.0475 0.04487,0.0449 0.04487,0.1135 v 1.52559 q 0,0.0686 -0.04751,0.11614 -0.04487,0.0449 -0.113494,0.0449 z"
           style="font-size:10.7169px;line-height:1.25;font-family:Quicksand;-inkscape-font-specification:Quicksand;baseline-shift:sub;fill:#248cd1;stroke-width:0.101517"
           id="path105300" />
        <rect
           style="fill:#effdff;fill-opacity:1;stroke:#7c8c95;stroke-width:0;stroke-linejoin:round;stroke-miterlimit:4;stroke-dasharray:none;stroke-opacity:1;paint-order:normal"
           id="rect100258"
           width="7.133594"
           height="7.0275183"
           x="44.342125"
           y="258.47311"
           ry="2.7844882" />
        <path
           d="m 47.160018,260.9025 q 0.08035,0.0402 0.09271,0.12671 0.01545,0.0865 -0.04327,0.15762 -0.04018,0.0556 -0.105077,0.0618 -0.06181,0.006 -0.126711,-0.0247 -0.07417,-0.034 -0.157615,-0.0525 -0.08035,-0.0185 -0.169977,-0.0185 -0.166887,0 -0.299778,0.0525 -0.129801,0.0525 -0.222516,0.15143 -0.09271,0.0958 -0.142162,0.2287 -0.04636,0.13289 -0.04636,0.2936 0,0.18852 0.05254,0.32759 0.05563,0.13907 0.151434,0.23179 0.0958,0.0927 0.225606,0.13907 0.129801,0.0433 0.281235,0.0433 0.08344,0 0.166887,-0.0154 0.08344,-0.0155 0.160705,-0.0556 0.0649,-0.0309 0.126711,-0.0216 0.0649,0.009 0.108167,0.0649 0.06181,0.0773 0.04327,0.16071 -0.01545,0.0804 -0.09271,0.11743 -0.08035,0.0402 -0.166887,0.068 -0.08344,0.0247 -0.169977,0.0371 -0.08653,0.0154 -0.176158,0.0154 -0.222516,0 -0.423398,-0.0711 -0.197791,-0.0711 -0.355407,-0.21015 -0.154525,-0.13907 -0.244149,-0.34614 -0.08962,-0.21015 -0.08962,-0.4852 0,-0.23797 0.08035,-0.43885 0.08344,-0.20089 0.231787,-0.34614 0.151434,-0.14834 0.355407,-0.2287 0.203972,-0.0834 0.445031,-0.0834 0.135982,0 0.265783,0.0309 0.1298,0.0309 0.244149,0.0896 z"
           style="font-weight:bold;font-size:16.4876px;line-height:1.25;font-family:Quicksand;-inkscape-font-specification:'Quicksand Bold';fill:#248cd1;stroke-width:0.0772626"
           id="path105606" />
        <path
           d="m 47.781204,260.79742 q 0.07417,0 0.129801,0.0556 0.05872,0.0525 0.05872,0.13289 v 1.78631 q 0,0.0804 -0.05872,0.13598 -0.05872,0.0525 -0.135982,0.0525 -0.08653,0 -0.139073,-0.0525 -0.05254,-0.0556 -0.05254,-0.13598 v -1.78631 q 0,-0.0804 0.05563,-0.13289 0.05563,-0.0556 0.142163,-0.0556 z m 1.369089,0 q 0.08653,0 0.139072,0.0556 0.05254,0.0525 0.05254,0.13289 v 1.78631 q 0,0.0804 -0.05563,0.13598 -0.05254,0.0525 -0.142163,0.0525 -0.07417,0 -0.132892,-0.0525 -0.05563,-0.0556 -0.05563,-0.13598 v -1.78631 q 0,-0.0804 0.05872,-0.13289 0.05872,-0.0556 0.135981,-0.0556 z m -1.378361,0.89934 h 1.378361 v 0.3554 h -1.378361 z"
           style="font-weight:bold;font-size:16.4876px;line-height:1.25;font-family:Quicksand;-inkscape-font-specification:'Quicksand Bold';fill:#248cd1;stroke-width:0.0772626"
           id="path105608" />
        <path
           d="m 50.35512,263.57887 q -0.05022,0 -0.08437,-0.0342 -0.03415,-0.0362 -0.03415,-0.0884 v -0.94414 l 0.04219,0.01 -0.387701,0.48011 -0.01005,-0.0261 h 0.71112 q 0.04821,0 0.08035,0.0321 0.03214,0.0322 0.03214,0.0804 0,0.0462 -0.03214,0.0783 -0.03214,0.0301 -0.08035,0.0301 h -0.877853 q -0.04218,0 -0.08236,-0.0341 -0.03817,-0.0342 -0.03817,-0.0844 0,-0.0442 0.03013,-0.0804 l 0.634786,-0.77741 q 0.01606,-0.0221 0.04219,-0.0342 0.02611,-0.0141 0.05826,-0.0141 0.05223,0 0.08437,0.0362 0.03415,0.0342 0.03415,0.0864 v 1.16109 q 0,0.0522 -0.03616,0.0884 -0.03415,0.0342 -0.08638,0.0342 z"
           style="font-size:10.7169px;line-height:1.25;font-family:Quicksand;-inkscape-font-specification:Quicksand;baseline-shift:sub;fill:#248cd1;stroke-width:0.0772626"
           id="path105610" />
        <rect
           style="fill:#effdff;fill-opacity:1;stroke:#7c8c95;stroke-width:0;stroke-linejoin:round;stroke-miterlimit:4;stroke-dasharray:none;stroke-opacity:1;paint-order:normal"
           id="rect100272"
           width="7.133594"
           height="7.0275183"
           x="84.052193"
           y="273.67081"
           ry="2.7844882" />
        <path
           d="m 86.870088,276.10018 q 0.08035,0.0402 0.09271,0.12671 0.01545,0.0865 -0.04327,0.15762 -0.04018,0.0556 -0.105077,0.0618 -0.06181,0.006 -0.126711,-0.0247 -0.07417,-0.034 -0.157615,-0.0525 -0.08035,-0.0185 -0.169977,-0.0185 -0.166887,0 -0.299778,0.0525 -0.129801,0.0525 -0.222516,0.15143 -0.09271,0.0958 -0.142162,0.2287 -0.04636,0.13289 -0.04636,0.2936 0,0.18852 0.05254,0.32759 0.05563,0.13907 0.151434,0.23179 0.0958,0.0927 0.225606,0.13907 0.129801,0.0433 0.281235,0.0433 0.08344,0 0.166887,-0.0154 0.08344,-0.0154 0.160705,-0.0556 0.0649,-0.0309 0.126711,-0.0216 0.0649,0.009 0.108167,0.0649 0.06181,0.0773 0.04327,0.16071 -0.01545,0.0804 -0.09271,0.11743 -0.08035,0.0402 -0.166887,0.068 -0.08344,0.0247 -0.169977,0.0371 -0.08653,0.0154 -0.176158,0.0154 -0.222516,0 -0.423398,-0.0711 -0.197791,-0.0711 -0.355407,-0.21015 -0.154525,-0.13907 -0.244149,-0.34614 -0.08962,-0.21015 -0.08962,-0.4852 0,-0.23797 0.08035,-0.43885 0.08344,-0.20089 0.231787,-0.34614 0.151434,-0.14834 0.355407,-0.2287 0.203972,-0.0834 0.445031,-0.0834 0.135982,0 0.265783,0.0309 0.1298,0.0309 0.244149,0.0896 z"
           style="font-weight:bold;font-size:16.4876px;line-height:1.25;font-family:Quicksand;-inkscape-font-specification:'Quicksand Bold';fill:#248cd1;stroke-width:0.0772626"
           id="path105556" />
        <path
           d="m 87.491274,275.9951 q 0.07417,0 0.129801,0.0556 0.05872,0.0525 0.05872,0.13289 v 1.78631 q 0,0.0804 -0.05872,0.13598 -0.05872,0.0525 -0.135982,0.0525 -0.08653,0 -0.139073,-0.0525 -0.05254,-0.0556 -0.05254,-0.13598 v -1.78631 q 0,-0.0804 0.05563,-0.13289 0.05563,-0.0556 0.142164,-0.0556 z m 1.369089,0 q 0.08653,0 0.139072,0.0556 0.05254,0.0525 0.05254,0.13289 v 1.78631 q 0,0.0804 -0.05563,0.13598 -0.05254,0.0525 -0.142163,0.0525 -0.07417,0 -0.132892,-0.0525 -0.05563,-0.0556 -0.05563,-0.13598 v -1.78631 q 0,-0.0804 0.05872,-0.13289 0.05872,-0.0556 0.135981,-0.0556 z m -1.378361,0.89934 h 1.378361 v 0.3554 h -1.378361 z"
           style="font-weight:bold;font-size:16.4876px;line-height:1.25;font-family:Quicksand;-inkscape-font-specification:'Quicksand Bold';fill:#248cd1;stroke-width:0.0772626"
           id="path105558" />
        <path
           d="m 90.06519,278.77655 q -0.05022,0 -0.08437,-0.0342 -0.03415,-0.0362 -0.03415,-0.0884 v -0.94414 l 0.04219,0.01 -0.387701,0.48011 -0.01005,-0.0261 h 0.71112 q 0.04821,0 0.08035,0.0321 0.03214,0.0322 0.03214,0.0804 0,0.0462 -0.03214,0.0783 -0.03214,0.0301 -0.08035,0.0301 h -0.877853 q -0.04218,0 -0.08236,-0.0342 -0.03817,-0.0342 -0.03817,-0.0844 0,-0.0442 0.03013,-0.0803 l 0.634786,-0.77741 q 0.01606,-0.0221 0.04219,-0.0342 0.02611,-0.0141 0.05826,-0.0141 0.05223,0 0.08437,0.0362 0.03415,0.0342 0.03415,0.0864 v 1.16109 q 0,0.0522 -0.03616,0.0884 -0.03415,0.0342 -0.08638,0.0342 z"
           style="font-size:10.7169px;line-height:1.25;font-family:Quicksand;-inkscape-font-specification:Quicksand;baseline-shift:sub;fill:#248cd1;stroke-width:0.0772626"
           id="path105560" />
        <rect
           style="fill:#effdff;fill-opacity:1;stroke:#7c8c95;stroke-width:0;stroke-linejoin:round;stroke-miterlimit:4;stroke-dasharray:none;stroke-opacity:1;paint-order:normal"
           id="rect100286"
           width="5.6628504"
           height="5.5786448"
           x="96.063263"
           y="271.99387"
           ry="2.2104063" />
        <path
           d="m 98.30019,273.92237 q 0.06379,0.0319 0.0736,0.10059 0.01227,0.0687 -0.03435,0.12512 -0.03189,0.0442 -0.08341,0.0491 -0.04907,0.005 -0.100587,-0.0196 -0.05888,-0.027 -0.125119,-0.0417 -0.06379,-0.0147 -0.134933,-0.0147 -0.132479,0 -0.237972,0.0417 -0.10304,0.0417 -0.176639,0.12021 -0.0736,0.0761 -0.112853,0.18154 -0.0368,0.1055 -0.0368,0.23307 0,0.14965 0.04171,0.26005 0.04416,0.1104 0.120213,0.184 0.07605,0.0736 0.179093,0.1104 0.103039,0.0344 0.223252,0.0344 0.06624,0 0.13248,-0.0123 0.06624,-0.0123 0.127572,-0.0442 0.05152,-0.0245 0.100587,-0.0172 0.05152,0.007 0.08587,0.0515 0.04907,0.0613 0.03435,0.12757 -0.01227,0.0638 -0.0736,0.0932 -0.06379,0.0319 -0.13248,0.054 -0.06624,0.0196 -0.134932,0.0294 -0.06869,0.0123 -0.13984,0.0123 -0.176639,0 -0.336105,-0.0564 -0.157013,-0.0564 -0.282132,-0.16683 -0.122666,-0.1104 -0.193813,-0.27477 -0.07115,-0.16682 -0.07115,-0.38517 0,-0.18891 0.06379,-0.34837 0.06624,-0.15947 0.183999,-0.27477 0.120213,-0.11776 0.282133,-0.18155 0.161919,-0.0662 0.353278,-0.0662 0.107946,0 0.210986,0.0245 0.103039,0.0245 0.193813,0.0711 z"
           style="font-weight:bold;font-size:16.4876px;line-height:1.25;font-family:Quicksand;-inkscape-font-specification:'Quicksand Bold';fill:#248cd1;stroke-width:0.0613332"
           id="path105321" />
        <path
           d="m 98.793305,273.83896 q 0.05888,0 0.103039,0.0442 0.04661,0.0417 0.04661,0.10549 v 1.41802 q 0,0.0638 -0.04661,0.10795 -0.04661,0.0417 -0.107946,0.0417 -0.06869,0 -0.110399,-0.0417 -0.04171,-0.0442 -0.04171,-0.10795 v -1.41802 q 0,-0.0638 0.04416,-0.10549 0.04416,-0.0442 0.112853,-0.0442 z m 1.086822,0 q 0.06869,0 0.110399,0.0442 0.0417,0.0417 0.0417,0.10549 v 1.41802 q 0,0.0638 -0.04416,0.10795 -0.04171,0.0417 -0.112853,0.0417 -0.05888,0 -0.105494,-0.0417 -0.04416,-0.0442 -0.04416,-0.10795 v -1.41802 q 0,-0.0638 0.04661,-0.10549 0.04661,-0.0442 0.107946,-0.0442 z m -1.094182,0.71391 h 1.094182 v 0.28214 h -1.094182 z"
           style="font-weight:bold;font-size:16.4876px;line-height:1.25;font-family:Quicksand;-inkscape-font-specification:'Quicksand Bold';fill:#248cd1;stroke-width:0.0613332"
           id="path105323" />
        <path
           d="m 100.83655,276.04695 q -0.0399,0 -0.067,-0.0271 -0.0271,-0.0287 -0.0271,-0.0702 v -0.74948 l 0.0335,0.008 -0.30777,0.38112 -0.008,-0.0207 h 0.56451 q 0.0383,0 0.0638,0.0255 0.0255,0.0255 0.0255,0.0638 0,0.0367 -0.0255,0.0622 -0.0255,0.0239 -0.0638,0.0239 h -0.69687 q -0.0335,0 -0.0654,-0.0271 -0.0303,-0.0271 -0.0303,-0.067 0,-0.0351 0.0239,-0.0638 l 0.50392,-0.61713 q 0.0128,-0.0175 0.0335,-0.0271 0.0207,-0.0112 0.0463,-0.0112 0.0415,0 0.067,0.0287 0.0271,0.0271 0.0271,0.0686 v 0.92171 q 0,0.0415 -0.0287,0.0702 -0.0271,0.0271 -0.0686,0.0271 z"
           style="font-size:10.7169px;line-height:1.25;font-family:Quicksand;-inkscape-font-specification:Quicksand;baseline-shift:sub;fill:#248cd1;stroke-width:0.0613332"
           id="path105325" />
        <rect
           style="fill:#effdff;fill-opacity:1;stroke:#7c8c95;stroke-width:0;stroke-linejoin:round;stroke-miterlimit:4;stroke-dasharray:none;stroke-opacity:1;paint-order:normal"
           id="rect100300"
           width="5.6628504"
           height="5.5786448"
           x="36.130474"
           y="269.66516"
           ry="2.2104063" />
        <path
           d="m 38.3674,271.59369 q 0.06379,0.0319 0.0736,0.10059 0.01227,0.0687 -0.03435,0.12512 -0.03189,0.0442 -0.08341,0.0491 -0.04907,0.005 -0.100587,-0.0196 -0.05888,-0.027 -0.125119,-0.0417 -0.06379,-0.0147 -0.134933,-0.0147 -0.132479,0 -0.237972,0.0417 -0.10304,0.0417 -0.176639,0.12021 -0.0736,0.076 -0.112853,0.18154 -0.0368,0.1055 -0.0368,0.23307 0,0.14965 0.04171,0.26005 0.04416,0.1104 0.120213,0.184 0.07605,0.0736 0.179093,0.1104 0.103039,0.0344 0.223252,0.0344 0.06624,0 0.13248,-0.0123 0.06624,-0.0123 0.127572,-0.0442 0.05152,-0.0245 0.100587,-0.0172 0.05152,0.007 0.08587,0.0515 0.04907,0.0613 0.03435,0.12757 -0.01227,0.0638 -0.0736,0.0932 -0.06379,0.0319 -0.13248,0.054 -0.06624,0.0196 -0.134932,0.0294 -0.06869,0.0123 -0.13984,0.0123 -0.176639,0 -0.336105,-0.0564 -0.157013,-0.0564 -0.282132,-0.16683 -0.122666,-0.1104 -0.193813,-0.27477 -0.07115,-0.16682 -0.07115,-0.38517 0,-0.18891 0.06379,-0.34837 0.06624,-0.15947 0.183999,-0.27477 0.120213,-0.11776 0.282133,-0.18155 0.161919,-0.0662 0.353278,-0.0662 0.107946,0 0.210986,0.0245 0.103039,0.0245 0.193813,0.0711 z"
           style="font-weight:bold;font-size:16.4876px;line-height:1.25;font-family:Quicksand;-inkscape-font-specification:'Quicksand Bold';fill:#248cd1;stroke-width:0.0613332"
           id="path105631" />
        <path
           d="m 38.860515,271.51028 q 0.05888,0 0.103039,0.0442 0.04661,0.0417 0.04661,0.10549 v 1.41802 q 0,0.0638 -0.04661,0.10795 -0.04661,0.0417 -0.107946,0.0417 -0.06869,0 -0.110399,-0.0417 -0.04171,-0.0442 -0.04171,-0.10795 v -1.41802 q 0,-0.0638 0.04416,-0.10549 0.04416,-0.0442 0.112853,-0.0442 z m 1.086822,0 q 0.06869,0 0.110399,0.0442 0.04171,0.0417 0.04171,0.10549 v 1.41802 q 0,0.0638 -0.04416,0.10795 -0.04171,0.0417 -0.112853,0.0417 -0.05888,0 -0.105494,-0.0417 -0.04416,-0.0442 -0.04416,-0.10795 v -1.41802 q 0,-0.0638 0.04661,-0.10549 0.04661,-0.0442 0.107946,-0.0442 z m -1.094182,0.71391 h 1.094182 v 0.28214 h -1.094182 z"
           style="font-weight:bold;font-size:16.4876px;line-height:1.25;font-family:Quicksand;-inkscape-font-specification:'Quicksand Bold';fill:#248cd1;stroke-width:0.0613332"
           id="path105633" />
        <path
           d="m 40.903763,273.71827 q -0.03987,0 -0.06697,-0.0271 -0.02711,-0.0287 -0.02711,-0.0702 v -0.74948 l 0.03349,0.008 -0.307768,0.38112 -0.008,-0.0207 h 0.564507 q 0.03827,0 0.06379,0.0255 0.02551,0.0255 0.02551,0.0638 0,0.0367 -0.02551,0.0622 -0.02551,0.0239 -0.06379,0.0239 h -0.696865 q -0.03349,0 -0.06538,-0.0271 -0.0303,-0.0271 -0.0303,-0.067 0,-0.0351 0.02392,-0.0638 l 0.50391,-0.61713 q 0.01275,-0.0175 0.03349,-0.0271 0.02073,-0.0112 0.04624,-0.0112 0.04146,0 0.06697,0.0287 0.02711,0.0271 0.02711,0.0686 v 0.92171 q 0,0.0415 -0.0287,0.0702 -0.02711,0.0271 -0.06857,0.0271 z"
           style="font-size:10.7169px;line-height:1.25;font-family:Quicksand;-inkscape-font-specification:Quicksand;baseline-shift:sub;fill:#248cd1;stroke-width:0.0613332"
           id="path105635" />
      </g>
    </g>
  </g>
</svg>
