<?xml version="1.0" encoding="UTF-8" standalone="no"?>
<!-- Created with Inkscape (http://www.inkscape.org/) -->

<svg
   width="285.9238mm"
   height="285.90982mm"
   viewBox="0 0 285.9238 285.90982"
   version="1.1"
   id="svg5"
   inkscape:version="1.1.1 (3bf5ae0d25, 2021-09-20)"
   sodipodi:docname="perstorp-oxo.svg"
   xmlns:inkscape="http://www.inkscape.org/namespaces/inkscape"
   xmlns:sodipodi="http://sodipodi.sourceforge.net/DTD/sodipodi-0.dtd"
   xmlns="http://www.w3.org/2000/svg"
   xmlns:svg="http://www.w3.org/2000/svg">
  <sodipodi:namedview
     id="namedview7"
     pagecolor="#505050"
     bordercolor="#eeeeee"
     borderopacity="1"
     inkscape:pageshadow="0"
     inkscape:pageopacity="0"
     inkscape:pagecheckerboard="0"
     inkscape:document-units="mm"
     showgrid="false"
     fit-margin-top="0"
     fit-margin-left="0"
     fit-margin-right="0"
     fit-margin-bottom="0"
     inkscape:zoom="0.11688451"
     inkscape:cx="534.71583"
     inkscape:cy="1142.153"
     inkscape:window-width="1920"
     inkscape:window-height="1017"
     inkscape:window-x="-8"
     inkscape:window-y="-8"
     inkscape:window-maximized="1"
     inkscape:current-layer="g65682"
     inkscape:snap-nodes="false"
     inkscape:snap-others="false"
     inkscape:snap-page="true" />
  <defs
     id="defs2" />
  <g
     inkscape:label="Lager 1"
     inkscape:groupmode="layer"
     id="layer1"
     transform="translate(-55.518622,-12.356939)">
    <g
       id="g65682"
       transform="translate(92.242936)">
      <circle
         style="fill:#007b9f;fill-opacity:1;stroke-width:0.439827"
         id="circle1376"
         cx="112.47507"
         cy="134.55096"
         r="32.309338" />
      <g
         aria-label="CO2"
         id="text11084-3"
         style="font-size:26.5664px;line-height:1.25;font-family:Quicksand;-inkscape-font-specification:Quicksand;fill:#ffffff;stroke-width:0.664162">
        <path
           d="m 103.44787,123.69941 q 0.45163,0.2391 0.50476,0.71729 0.0797,0.4782 -0.2391,0.8767 -0.2391,0.34536 -0.61103,0.37192 -0.37193,0.0266 -0.74386,-0.15939 -0.87669,-0.53133 -1.88621,-0.82356 -1.009523,-0.3188 -2.125312,-0.3188 -1.567417,0 -2.869171,0.5579 -1.301754,0.53132 -2.258144,1.51428 -0.95639,0.98296 -1.487718,2.33784 -0.531328,1.35489 -0.531328,3.00201 0,1.75338 0.557894,3.13483 0.557894,1.38146 1.514285,2.36441 0.982957,0.95639 2.258144,1.46115 1.301754,0.50477 2.816038,0.50477 1.089223,0 2.098742,-0.29223 1.00953,-0.29224 1.91278,-0.85013 0.37193,-0.18596 0.74386,-0.13283 0.37193,0.0531 0.6376,0.37193 0.31879,0.42506 0.2391,0.90326 -0.0797,0.45162 -0.50477,0.66416 -0.66416,0.39849 -1.51428,0.74385 -0.85013,0.3188 -1.77995,0.50477 -0.903258,0.18596 -1.833082,0.18596 -1.91278,0 -3.61303,-0.66416 -1.70025,-0.66416 -3.002003,-1.91278 -1.301754,-1.24862 -2.07218,-3.002 -0.743859,-1.77995 -0.743859,-3.98496 0,-2.07218 0.717293,-3.799 0.717293,-1.72681 1.99248,-3.002 1.301754,-1.27519 3.002003,-1.99248 1.726816,-0.71729 3.719296,-0.71729 1.381453,0 2.683202,0.37193 1.32832,0.37192 2.41755,1.06265 z"
           style="font-weight:500;-inkscape-font-specification:'Quicksand Medium'"
           id="path67057" />
        <path
           d="m 123.95709,131.7756 q 0,2.04561 -0.66416,3.79899 -0.66416,1.72682 -1.85965,3.02857 -1.19549,1.30176 -2.8426,2.01905 -1.64712,0.71729 -3.58647,0.71729 -1.96591,0 -3.61303,-0.71729 -1.62055,-0.71729 -2.81604,-2.01905 -1.19548,-1.30175 -1.85964,-3.02857 -0.66416,-1.75338 -0.66416,-3.79899 0,-2.07218 0.66416,-3.799 0.66416,-1.75338 1.85964,-3.02857 1.19549,-1.30175 2.81604,-2.01904 1.64712,-0.7173 3.61303,-0.7173 1.93935,0 3.58647,0.7173 1.64711,0.71729 2.8426,2.01904 1.19549,1.27519 1.85965,3.02857 0.66416,1.72682 0.66416,3.799 z m -2.28471,0 q 0,-2.17845 -0.87669,-3.85213 -0.85013,-1.67368 -2.33784,-2.63007 -1.48772,-0.9564 -3.45364,-0.9564 -1.96591,0 -3.4802,0.9564 -1.48771,0.95639 -2.33784,2.63007 -0.85012,1.67368 -0.85012,3.85213 0,2.15188 0.85012,3.85213 0.85013,1.67368 2.33784,2.63007 1.51429,0.95639 3.4802,0.95639 1.96592,0 3.45364,-0.95639 1.48771,-0.95639 2.33784,-2.63007 0.87669,-1.70025 0.87669,-3.85213 z"
           style="font-weight:500;-inkscape-font-specification:'Quicksand Medium'"
           id="path67059" />
        <path
           d="m 133.25136,145.092 q 0.27629,0 0.46624,0.18995 0.18995,0.18995 0.18995,0.46624 0,0.2763 -0.18995,0.46625 -0.18995,0.17268 -0.46624,0.17268 h -6.26835 q -0.31083,0 -0.51805,-0.17268 -0.18995,-0.18995 -0.18995,-0.50078 0,-0.27629 0.20722,-0.50078 l 3.90261,-4.26525 q 0.86341,-0.93248 1.29512,-1.74408 0.44897,-0.82888 0.44897,-1.4678 0,-1.05336 -0.63892,-1.67502 -0.62166,-0.63892 -1.67502,-0.63892 -0.46624,0 -0.93248,0.20722 -0.46624,0.18995 -0.84614,0.53531 -0.3799,0.3281 -0.62166,0.74254 -0.13814,0.22448 -0.29356,0.29356 -0.13814,0.0518 -0.29356,0.0518 -0.25902,0 -0.46624,-0.17268 -0.20722,-0.18995 -0.20722,-0.43171 0,-0.18995 0.10361,-0.34536 0.10361,-0.17268 0.27629,-0.3799 0.36263,-0.50078 0.89795,-0.89795 0.55258,-0.41443 1.1915,-0.65619 0.6562,-0.24175 1.27785,-0.24175 1.10517,0 1.91677,0.4317 0.82888,0.43171 1.27785,1.22604 0.44897,0.79434 0.44897,1.86497 0,0.91521 -0.55258,2.02038 -0.55258,1.10516 -1.62321,2.24486 l -3.02194,3.35003 -0.17268,-0.17268 z"
           style="font-size:17.2682px;baseline-shift:sub"
           id="path67061" />
      </g>
    </g>
    <g
       id="g66148"
       transform="translate(92.242936)">
      <circle
         style="fill:#007b9f;fill-opacity:1;stroke-width:0.264583"
         id="path1210"
         cx="112.22266"
         cy="31.793026"
         r="19.436087" />
      <g
         id="g65696">
        <g
           aria-label="CO2"
           id="text6448"
           style="font-size:15.1842px;line-height:1.25;font-family:Quicksand;-inkscape-font-specification:Quicksand;stroke-width:0.379605">
          <path
             d="m 107.27278,25.231562 q 0.25813,0.136658 0.2885,0.409974 0.0456,0.273315 -0.13666,0.501078 -0.13666,0.197395 -0.34924,0.212579 -0.21258,0.01518 -0.42516,-0.0911 -0.50107,-0.303684 -1.07807,-0.47071 -0.577,-0.182211 -1.21474,-0.182211 -0.89587,0 -1.63989,0.318868 -0.74403,0.303684 -1.29066,0.8655 -0.54663,0.561815 -0.85032,1.33621 -0.30368,0.774394 -0.30368,1.715814 0,1.002157 0.31887,1.791736 0.31887,0.789578 0.8655,1.351394 0.56181,0.546631 1.29065,0.835131 0.74403,0.288499 1.60953,0.288499 0.62255,0 1.19955,-0.167026 0.577,-0.167026 1.09326,-0.485894 0.21258,-0.10629 0.42516,-0.07592 0.21258,0.03037 0.36442,0.212579 0.18221,0.242947 0.13666,0.516262 -0.0455,0.258132 -0.2885,0.379605 -0.3796,0.227763 -0.8655,0.425158 -0.48589,0.18221 -1.01734,0.2885 -0.51626,0.106289 -1.04771,0.106289 -1.09326,0 -2.06505,-0.379605 -0.97179,-0.379605 -1.71582,-1.093262 -0.744022,-0.713658 -1.184364,-1.715815 -0.425157,-1.017341 -0.425157,-2.27763 0,-1.184367 0.409973,-2.17134 0.409973,-0.986973 1.138818,-1.715815 0.74402,-0.728842 1.71581,-1.138815 0.98697,-0.409974 2.12579,-0.409974 0.78958,0 1.5336,0.212579 0.75921,0.212579 1.38177,0.607368 z"
             style="font-weight:500;-inkscape-font-specification:'Quicksand Medium'"
             id="path66751" />
          <path
             d="m 118.99496,29.847559 q 0,1.169184 -0.37961,2.171341 -0.3796,0.986973 -1.06289,1.730999 -0.68329,0.744025 -1.62471,1.153999 -0.94142,0.409973 -2.04987,0.409973 -1.12363,0 -2.06505,-0.409973 -0.92624,-0.409974 -1.60953,-1.153999 -0.68328,-0.744026 -1.06289,-1.730999 -0.3796,-1.002157 -0.3796,-2.171341 0,-1.184367 0.3796,-2.17134 0.37961,-1.002158 1.06289,-1.730999 0.68329,-0.744026 1.60953,-1.154 0.94142,-0.409973 2.06505,-0.409973 1.10845,0 2.04987,0.409973 0.94142,0.409974 1.62471,1.154 0.68329,0.728841 1.06289,1.730999 0.37961,0.986973 0.37961,2.17134 z m -1.30584,0 q 0,-1.245104 -0.50108,-2.201709 -0.4859,-0.956604 -1.33621,-1.503236 -0.85032,-0.546631 -1.97395,-0.546631 -1.12363,0 -1.98913,0.546631 -0.85031,0.546632 -1.33621,1.503236 -0.48589,0.956605 -0.48589,2.201709 0,1.22992 0.48589,2.201709 0.4859,0.956605 1.33621,1.503236 0.8655,0.546631 1.98913,0.546631 1.12363,0 1.97395,-0.546631 0.85031,-0.546631 1.33621,-1.503236 0.50108,-0.971789 0.50108,-2.201709 z"
             style="font-weight:500;-inkscape-font-specification:'Quicksand Medium'"
             id="path66753" />
          <path
             d="m 124.30715,37.458639 q 0.15791,0 0.26648,0.108568 0.10857,0.108567 0.10857,0.266482 0,0.157916 -0.10857,0.266483 -0.10857,0.0987 -0.26648,0.0987 h -3.58271 q -0.17766,0 -0.29609,-0.0987 -0.10857,-0.108567 -0.10857,-0.286222 0,-0.157916 0.11843,-0.286222 l 2.23056,-2.437824 q 0.49349,-0.532965 0.74023,-0.996842 0.25662,-0.473747 0.25662,-0.838927 0,-0.602054 -0.36518,-0.957364 -0.35531,-0.36518 -0.95737,-0.36518 -0.26648,0 -0.53296,0.118436 -0.26649,0.108567 -0.48362,0.305962 -0.21713,0.187525 -0.35531,0.424398 -0.079,0.128307 -0.16779,0.167786 -0.0789,0.02961 -0.16778,0.02961 -0.14805,0 -0.26648,-0.0987 -0.11844,-0.108567 -0.11844,-0.246743 0,-0.108568 0.0592,-0.197395 0.0592,-0.0987 0.15791,-0.217134 0.20727,-0.286222 0.51323,-0.513226 0.31583,-0.236874 0.68101,-0.37505 0.37505,-0.138176 0.73036,-0.138176 0.63166,0 1.09554,0.246743 0.47375,0.246743 0.73036,0.700751 0.25661,0.454008 0.25661,1.065931 0,0.523096 -0.31583,1.154758 -0.31583,0.631663 -0.92775,1.283065 l -1.7272,1.914728 -0.0987,-0.0987 z"
             style="font-size:65%;baseline-shift:sub"
             id="path66755" />
        </g>
        <g
           aria-label="CO2"
           id="text11078"
           style="font-size:15.1842px;line-height:1.25;font-family:Quicksand;-inkscape-font-specification:Quicksand;fill:#ffffff;stroke-width:0.379605">
          <path
             d="m 107.27278,25.231562 q 0.25813,0.136658 0.2885,0.409974 0.0456,0.273315 -0.13666,0.501078 -0.13666,0.197395 -0.34924,0.212579 -0.21258,0.01518 -0.42516,-0.0911 -0.50107,-0.303684 -1.07807,-0.47071 -0.577,-0.182211 -1.21474,-0.182211 -0.89587,0 -1.63989,0.318868 -0.74403,0.303684 -1.29066,0.8655 -0.54663,0.561815 -0.85032,1.33621 -0.30368,0.774394 -0.30368,1.715814 0,1.002157 0.31887,1.791736 0.31887,0.789578 0.8655,1.351394 0.56181,0.546631 1.29065,0.835131 0.74403,0.288499 1.60953,0.288499 0.62255,0 1.19955,-0.167026 0.577,-0.167026 1.09326,-0.485894 0.21258,-0.10629 0.42516,-0.07592 0.21258,0.03037 0.36442,0.212579 0.18221,0.242947 0.13666,0.516262 -0.0455,0.258132 -0.2885,0.379605 -0.3796,0.227763 -0.8655,0.425158 -0.48589,0.18221 -1.01734,0.2885 -0.51626,0.106289 -1.04771,0.106289 -1.09326,0 -2.06505,-0.379605 -0.97179,-0.379605 -1.71582,-1.093262 -0.744022,-0.713658 -1.184364,-1.715815 -0.425157,-1.017341 -0.425157,-2.27763 0,-1.184367 0.409973,-2.17134 0.409973,-0.986973 1.138818,-1.715815 0.74402,-0.728842 1.71581,-1.138815 0.98697,-0.409974 2.12579,-0.409974 0.78958,0 1.5336,0.212579 0.75921,0.212579 1.38177,0.607368 z"
             style="font-weight:500;-inkscape-font-specification:'Quicksand Medium'"
             id="path66758" />
          <path
             d="m 118.99496,29.847559 q 0,1.169184 -0.37961,2.171341 -0.3796,0.986973 -1.06289,1.730999 -0.68329,0.744025 -1.62471,1.153999 -0.94142,0.409973 -2.04987,0.409973 -1.12363,0 -2.06505,-0.409973 -0.92624,-0.409974 -1.60953,-1.153999 -0.68328,-0.744026 -1.06289,-1.730999 -0.3796,-1.002157 -0.3796,-2.171341 0,-1.184367 0.3796,-2.17134 0.37961,-1.002158 1.06289,-1.730999 0.68329,-0.744026 1.60953,-1.154 0.94142,-0.409973 2.06505,-0.409973 1.10845,0 2.04987,0.409973 0.94142,0.409974 1.62471,1.154 0.68329,0.728841 1.06289,1.730999 0.37961,0.986973 0.37961,2.17134 z m -1.30584,0 q 0,-1.245104 -0.50108,-2.201709 -0.4859,-0.956604 -1.33621,-1.503236 -0.85032,-0.546631 -1.97395,-0.546631 -1.12363,0 -1.98913,0.546631 -0.85031,0.546632 -1.33621,1.503236 -0.48589,0.956605 -0.48589,2.201709 0,1.22992 0.48589,2.201709 0.4859,0.956605 1.33621,1.503236 0.8655,0.546631 1.98913,0.546631 1.12363,0 1.97395,-0.546631 0.85031,-0.546631 1.33621,-1.503236 0.50108,-0.971789 0.50108,-2.201709 z"
             style="font-weight:500;-inkscape-font-specification:'Quicksand Medium'"
             id="path66760" />
          <path
             d="m 124.30715,37.458639 q 0.15791,0 0.26648,0.108568 0.10857,0.108567 0.10857,0.266482 0,0.157916 -0.10857,0.266483 -0.10857,0.0987 -0.26648,0.0987 h -3.58271 q -0.17766,0 -0.29609,-0.0987 -0.10857,-0.108567 -0.10857,-0.286222 0,-0.157916 0.11843,-0.286222 l 2.23056,-2.437824 q 0.49349,-0.532965 0.74023,-0.996842 0.25662,-0.473747 0.25662,-0.838927 0,-0.602054 -0.36518,-0.957364 -0.35531,-0.36518 -0.95737,-0.36518 -0.26648,0 -0.53296,0.118436 -0.26649,0.108567 -0.48362,0.305962 -0.21713,0.187525 -0.35531,0.424398 -0.079,0.128307 -0.16779,0.167786 -0.0789,0.02961 -0.16778,0.02961 -0.14805,0 -0.26648,-0.0987 -0.11844,-0.108567 -0.11844,-0.246743 0,-0.108568 0.0592,-0.197395 0.0592,-0.0987 0.15791,-0.217134 0.20727,-0.286222 0.51323,-0.513226 0.31583,-0.236874 0.68101,-0.37505 0.37505,-0.138176 0.73036,-0.138176 0.63166,0 1.09554,0.246743 0.47375,0.246743 0.73036,0.700751 0.25661,0.454008 0.25661,1.065931 0,0.523096 -0.31583,1.154758 -0.31583,0.631663 -0.92775,1.283065 l -1.7272,1.914728 -0.0987,-0.0987 z"
             style="font-size:65%;baseline-shift:sub"
             id="path66762" />
        </g>
      </g>
    </g>
    <g
       id="g65688"
       transform="translate(92.242936)">
      <circle
         style="fill:#007b9f;fill-opacity:1;stroke-width:0.343615"
         id="circle1374"
         cx="81.1754"
         cy="76.999947"
         r="25.241671" />
      <g
         aria-label="CO2"
         id="text11084"
         style="font-size:19.6106px;line-height:1.25;font-family:Quicksand;-inkscape-font-specification:Quicksand;fill:#ffffff;stroke-width:0.490266">
        <path
           d="m 74.544938,68.4945 q 0.33338,0.176495 0.372601,0.529486 0.05883,0.352991 -0.176495,0.64715 -0.176496,0.254938 -0.451044,0.274548 -0.274548,0.01961 -0.549097,-0.117663 -0.647149,-0.392212 -1.392352,-0.607929 -0.745203,-0.235327 -1.568848,-0.235327 -1.157026,0 -2.117945,0.411822 -0.960919,0.392212 -1.666901,1.117805 -0.705982,0.725592 -1.098194,1.725732 -0.392212,1.000141 -0.392212,2.215998 0,1.2943 0.411823,2.314051 0.411823,1.019751 1.117804,1.745343 0.725592,0.705982 1.666901,1.078583 0.96092,0.372601 2.078724,0.372601 0.804034,0 1.549237,-0.215716 0.745203,-0.215717 1.411963,-0.627539 0.274549,-0.137274 0.549097,-0.09805 0.274548,0.03922 0.470654,0.274548 0.235328,0.31377 0.176496,0.66676 -0.05883,0.333381 -0.372602,0.490265 -0.490265,0.294159 -1.117804,0.549097 -0.627539,0.235327 -1.31391,0.372602 -0.66676,0.137274 -1.353131,0.137274 -1.411963,0 -2.667042,-0.490265 -1.255078,-0.490265 -2.215998,-1.411963 -0.960919,-0.921698 -1.529626,-2.215998 -0.549097,-1.31391 -0.549097,-2.94159 0,-1.529627 0.529486,-2.804316 0.529486,-1.274689 1.470795,-2.215997 0.960919,-0.941309 2.215998,-1.470795 1.274689,-0.529487 2.745484,-0.529487 1.019751,0 1.98067,0.274549 0.98053,0.274548 1.784565,0.784424 z"
           style="font-weight:500;-inkscape-font-specification:'Quicksand Medium'"
           id="path66726" />
        <path
           d="m 89.684292,74.456122 q 0,1.510016 -0.490265,2.804316 -0.490264,1.274689 -1.372741,2.235608 -0.882477,0.960919 -2.098335,1.490406 -1.215857,0.529486 -2.647431,0.529486 -1.451184,0 -2.667041,-0.529486 -1.196247,-0.529487 -2.078724,-1.490406 -0.882477,-0.960919 -1.372742,-2.235608 -0.490265,-1.2943 -0.490265,-2.804316 0,-1.529627 0.490265,-2.804316 0.490265,-1.294299 1.372742,-2.235608 0.882477,-0.960919 2.078724,-1.490406 1.215857,-0.529486 2.667041,-0.529486 1.431574,0 2.647431,0.529486 1.215858,0.529487 2.098335,1.490406 0.882477,0.941309 1.372741,2.235608 0.490265,1.274689 0.490265,2.804316 z m -1.686511,0 q 0,-1.608069 -0.64715,-2.843537 -0.627539,-1.235468 -1.725733,-1.941449 -1.098193,-0.705982 -2.549378,-0.705982 -1.451184,0 -2.568988,0.705982 -1.098194,0.705981 -1.725733,1.941449 -0.627539,1.235468 -0.627539,2.843537 0,1.588459 0.627539,2.843537 0.627539,1.235468 1.725733,1.941449 1.117804,0.705982 2.568988,0.705982 1.451185,0 2.549378,-0.705982 1.098194,-0.705981 1.725733,-1.941449 0.64715,-1.255078 0.64715,-2.843537 z"
           style="font-weight:500;-inkscape-font-specification:'Quicksand Medium'"
           id="path66728" />
        <path
           d="m 96.545065,84.285934 q 0.20395,0 0.344166,0.140216 0.140216,0.140216 0.140216,0.344166 0,0.203951 -0.140216,0.344167 -0.140216,0.127469 -0.344166,0.127469 H 91.91794 q -0.229444,0 -0.382407,-0.127469 -0.140216,-0.140216 -0.140216,-0.36966 0,-0.203951 0.152963,-0.36966 l 2.880799,-3.148485 q 0.637345,-0.688332 0.956018,-1.287437 0.331419,-0.611851 0.331419,-1.083486 0,-0.777561 -0.471635,-1.236449 -0.458889,-0.471636 -1.236449,-0.471636 -0.344167,0 -0.688333,0.152963 -0.344166,0.140216 -0.624598,0.395154 -0.280432,0.242191 -0.458889,0.548117 -0.101975,0.16571 -0.216697,0.216697 -0.101975,0.03824 -0.216697,0.03824 -0.191204,0 -0.344166,-0.127469 -0.152963,-0.140216 -0.152963,-0.318673 0,-0.140216 0.07648,-0.254938 0.07648,-0.127469 0.203951,-0.280431 0.267685,-0.369661 0.662838,-0.662839 0.407901,-0.305926 0.879536,-0.484382 0.484383,-0.178457 0.943271,-0.178457 0.815802,0 1.414906,0.318672 0.611851,0.318673 0.94327,0.90503 0.33142,0.586358 0.33142,1.376666 0,0.675585 -0.407901,1.491387 -0.407901,0.815801 -1.198208,1.657097 l -2.230708,2.472898 -0.127469,-0.127469 z"
           style="font-size:12.7469px;baseline-shift:sub"
           id="path66730" />
      </g>
    </g>
    <g
       id="g65676"
       transform="translate(92.242936)">
      <path
         id="path11202"
         style="fill:#cde2f6;fill-opacity:1;stroke:#000000;stroke-width:0;stroke-linecap:butt;stroke-linejoin:miter;stroke-miterlimit:4;stroke-dasharray:none;stroke-opacity:1"
         d="m 84.843459,178.03167 c -4.445955,-0.0261 -10.546763,2.41947 -11.021549,11.02155 v 5.26531 h 5.086511 l 0.02274,-5.94434 c 0.02317,-4.1401 3.911012,-5.39525 5.401738,-5.40225 h 25.610321 v 60.62368 h -5.95261 v 16.20626 h -9.187549 v -42.9855 c -0.26109,-3.81765 -0.445372,-6.33545 -5.666838,-9.81541 H 73.00904 63.880915 c -4.14259,1.82068 -5.401607,5.53067 -5.698877,9.87071 v 81.02658 h 98.714902 v -38.36718 h -7.02334 v -15.60679 h -6.0632 v -56.23223 c -0.17707,-6.45392 -5.36716,-9.43209 -9.66039,-9.66039 z m 29.901531,4.84002 9.40356,0.10025 v 60.72393 h -9.40356 z m 14.90607,0.30023 h 3.80132 c 3.94752,-0.0298 5.54977,1.76392 5.70249,5.70198 v 54.92172 h -9.80405 z" />
      <path
         style="fill:#ceedfe;fill-opacity:1;stroke:#000000;stroke-width:0;stroke-linecap:butt;stroke-linejoin:miter;stroke-miterlimit:4;stroke-dasharray:none;stroke-opacity:1"
         d="m 121.90305,240.68833 c 3.37186,0 5.73926,0 10.1156,0 l -0.0177,1.89226 h -10.1156 z"
         id="path17383"
         sodipodi:nodetypes="ccccc" />
      <path
         style="fill:#ceedfe;fill-opacity:1;stroke:#000000;stroke-width:0;stroke-linecap:butt;stroke-linejoin:miter;stroke-miterlimit:4;stroke-dasharray:none;stroke-opacity:1"
         d="m 107.19829,240.66179 c 3.37187,0 5.73926,0 10.1156,0 l -0.0177,1.89226 h -10.1156 z"
         id="path17385"
         sodipodi:nodetypes="ccccc" />
      <path
         style="fill:#ceedfe;fill-opacity:1;stroke:#000000;stroke-width:0;stroke-linecap:butt;stroke-linejoin:miter;stroke-miterlimit:4;stroke-dasharray:none;stroke-opacity:1"
         d="m 136.54591,240.67064 c 3.37186,0 5.73925,0 10.1156,0 l -0.0177,1.89226 h -10.1156 z"
         id="path17387"
         sodipodi:nodetypes="ccccc" />
      <path
         style="fill:#3792ce;fill-opacity:1;stroke:#000000;stroke-width:0;stroke-linecap:butt;stroke-linejoin:miter;stroke-miterlimit:4;stroke-dasharray:none;stroke-opacity:1"
         d="m 133.03569,177.67723 c -0.0319,-0.68714 1.89793,-0.68367 1.963,0 v 5.57065 c 0.0236,0.72608 -2.03963,0.77553 -1.99837,0 z"
         id="path13871-6"
         sodipodi:nodetypes="ccccc" />
      <path
         style="fill:#3792ce;fill-opacity:1;stroke:#000000;stroke-width:0;stroke-linecap:butt;stroke-linejoin:miter;stroke-miterlimit:4;stroke-dasharray:none;stroke-opacity:1"
         d="m 115.00398,198.46467 c 0.68713,-0.0319 0.68367,1.89792 0,1.96299 h -5.57066 c -0.72607,0.0236 -0.77553,-2.03963 0,-1.99836 z"
         id="path13871-40"
         sodipodi:nodetypes="ccccc" />
      <path
         style="fill:#3792ce;fill-opacity:1;stroke:#000000;stroke-width:0;stroke-linecap:butt;stroke-linejoin:miter;stroke-miterlimit:4;stroke-dasharray:none;stroke-opacity:1"
         d="m 115.00398,217.52214 c 0.68713,-0.0319 0.68367,1.89792 0,1.96299 h -5.57066 c -0.72607,0.0236 -0.77553,-2.03963 0,-1.99836 z"
         id="path13871-40-1"
         sodipodi:nodetypes="ccccc" />
      <path
         style="fill:#3792ce;fill-opacity:1;stroke:#000000;stroke-width:0;stroke-linecap:butt;stroke-linejoin:miter;stroke-miterlimit:4;stroke-dasharray:none;stroke-opacity:1"
         d="m 129.60971,188.6108 c 0.68713,-0.0319 0.68367,1.89792 0,1.96299 h -5.57066 c -0.72607,0.0236 -0.77553,-2.03963 0,-1.99836 z"
         id="path13871-40-9"
         sodipodi:nodetypes="ccccc" />
      <path
         style="fill:#3792ce;fill-opacity:1;stroke:#000000;stroke-width:0;stroke-linecap:butt;stroke-linejoin:miter;stroke-miterlimit:4;stroke-dasharray:none;stroke-opacity:1"
         d="m 129.70975,208.06843 c 0.68713,-0.0319 0.68367,1.89792 0,1.96299 h -5.57066 c -0.72607,0.0236 -0.77553,-2.03963 0,-1.99836 z"
         id="path13871-40-6"
         sodipodi:nodetypes="ccccc" />
      <path
         style="fill:#3792ce;fill-opacity:1;stroke:#000000;stroke-width:0;stroke-linecap:butt;stroke-linejoin:miter;stroke-miterlimit:4;stroke-dasharray:none;stroke-opacity:1"
         d="m 129.65973,227.37602 c 0.68713,-0.0319 0.68367,1.89792 0,1.96299 h -5.57066 c -0.72607,0.0236 -0.77553,-2.03963 0,-1.99836 z"
         id="path13871-40-11"
         sodipodi:nodetypes="ccccc" />
      <path
         style="fill:#3792ce;fill-opacity:1;stroke:#000000;stroke-width:0;stroke-linecap:butt;stroke-linejoin:miter;stroke-miterlimit:4;stroke-dasharray:none;stroke-opacity:1"
         d="m 115.20405,237.02983 c 0.68713,-0.0319 0.68367,1.89792 0,1.96299 h -5.57066 c -0.72607,0.0236 -0.77553,-2.03963 0,-1.99836 z"
         id="path13871-40-11-6"
         sodipodi:nodetypes="ccccc" />
      <path
         style="fill:#3792ce;fill-opacity:1;stroke:#000000;stroke-width:0;stroke-linecap:butt;stroke-linejoin:miter;stroke-miterlimit:4;stroke-dasharray:none;stroke-opacity:1"
         d="m 144.21544,237.27993 c 0.68713,-0.0319 0.68367,1.89792 0,1.96299 h -5.57066 c -0.72607,0.0236 -0.77553,-2.03963 0,-1.99836 z"
         id="path13871-40-11-6-6"
         sodipodi:nodetypes="ccccc" />
      <path
         style="fill:#3792ce;fill-opacity:1;stroke:#000000;stroke-width:0;stroke-linecap:butt;stroke-linejoin:miter;stroke-miterlimit:4;stroke-dasharray:none;stroke-opacity:1"
         d="m 144.41553,198.41465 c 0.68713,-0.0319 0.68367,1.89792 0,1.96299 h -5.57066 c -0.72607,0.0236 -0.77553,-2.03963 0,-1.99836 z"
         id="path13871-40-8"
         sodipodi:nodetypes="ccccc" />
      <path
         style="fill:#3792ce;fill-opacity:1;stroke:#000000;stroke-width:0;stroke-linecap:butt;stroke-linejoin:miter;stroke-miterlimit:4;stroke-dasharray:none;stroke-opacity:1"
         d="m 144.51556,217.77225 c 0.68713,-0.0319 0.68367,1.89792 0,1.96299 h -5.57066 c -0.72607,0.0236 -0.77553,-2.03963 0,-1.99836 z"
         id="path13871-40-5"
         sodipodi:nodetypes="ccccc" />
      <path
         style="fill:#3792ce;fill-opacity:1;stroke:#000000;stroke-width:0;stroke-linecap:butt;stroke-linejoin:miter;stroke-miterlimit:4;stroke-dasharray:none;stroke-opacity:1"
         d="m 118.18062,177.6065 c -0.0319,-0.68714 1.89793,-0.68367 1.96299,0 v 5.57065 c 0.0236,0.72608 -2.03962,0.77553 -1.99836,0 z"
         id="path13871-4"
         sodipodi:nodetypes="ccccc" />
      <path
         style="fill:#3792ce;fill-opacity:1;stroke:#000000;stroke-width:0;stroke-linecap:butt;stroke-linejoin:miter;stroke-miterlimit:4;stroke-dasharray:none;stroke-opacity:1"
         d="m 85.172108,177.72836 c -0.03189,-0.68714 1.897927,-0.68367 1.962992,0 v 5.57065 c 0.02358,0.72608 -2.039625,0.77553 -1.998361,0 z"
         id="path13871"
         sodipodi:nodetypes="ccccc" />
      <path
         style="fill:#3792ce;fill-opacity:1;stroke:#000000;stroke-width:0;stroke-linecap:butt;stroke-linejoin:miter;stroke-miterlimit:4;stroke-dasharray:none;stroke-opacity:1"
         d="m 104.84642,177.71261 c -0.0319,-0.68714 1.89793,-0.68367 1.96299,0 v 5.57065 c 0.0236,0.72608 -2.03962,0.77553 -1.99836,0 z"
         id="path13871-7"
         sodipodi:nodetypes="ccccc" />
      <path
         style="fill:#3792ce;fill-opacity:1;stroke:#000000;stroke-width:0;stroke-linecap:butt;stroke-linejoin:miter;stroke-miterlimit:4;stroke-dasharray:none;stroke-opacity:1"
         d="m 107.15408,240.04894 h 10.1156 v 1.20256 h -10.1156 z"
         id="path16784" />
      <path
         style="fill:#3792ce;fill-opacity:1;stroke:#000000;stroke-width:0;stroke-linecap:butt;stroke-linejoin:miter;stroke-miterlimit:4;stroke-dasharray:none;stroke-opacity:1"
         d="m 121.90304,240.08431 h 10.1156 v 1.20256 h -10.1156 z"
         id="path16866" />
      <path
         style="fill:#3792ce;fill-opacity:1;stroke:#000000;stroke-width:0;stroke-linecap:butt;stroke-linejoin:miter;stroke-miterlimit:4;stroke-dasharray:none;stroke-opacity:1"
         d="m 136.54591,240.01357 h 10.1156 v 1.20256 h -10.1156 z"
         id="path16866-6" />
      <path
         style="fill:#3792ce;fill-opacity:1;stroke:#000000;stroke-width:0;stroke-linecap:butt;stroke-linejoin:miter;stroke-miterlimit:4;stroke-dasharray:none;stroke-opacity:1"
         d="m 136.54591,241.72898 c 3.37186,0 5.73925,0 10.1156,0 l -0.0177,1.89226 h -10.1156 z"
         id="path16903"
         sodipodi:nodetypes="ccccc" />
      <path
         style="fill:#3792ce;fill-opacity:1;stroke:#000000;stroke-width:0;stroke-linecap:butt;stroke-linejoin:miter;stroke-miterlimit:4;stroke-dasharray:none;stroke-opacity:1"
         d="m 121.90305,241.74667 c 3.37186,0 5.73926,0 10.1156,0 l -0.0177,1.89226 h -10.1156 z"
         id="path17346"
         sodipodi:nodetypes="ccccc" />
      <path
         style="fill:#3792ce;fill-opacity:1;stroke:#000000;stroke-width:0;stroke-linecap:butt;stroke-linejoin:miter;stroke-miterlimit:4;stroke-dasharray:none;stroke-opacity:1"
         d="m 107.19829,241.72013 c 3.37187,0 5.73926,0 10.1156,0 l -0.0177,1.89226 h -10.1156 z"
         id="path17346-0"
         sodipodi:nodetypes="ccccc" />
      <rect
         style="fill:#00395f;fill-opacity:1;stroke-width:0;stroke-miterlimit:4;stroke-dasharray:none"
         id="rect22173"
         width="13.555322"
         height="2.6510408"
         x="112.89432"
         y="250.3483" />
      <rect
         style="fill:#00395f;fill-opacity:1;stroke-width:0;stroke-miterlimit:4;stroke-dasharray:none"
         id="rect22255"
         width="13.555322"
         height="2.6510408"
         x="127.85018"
         y="250.3483" />
      <rect
         style="fill:#00395f;fill-opacity:1;stroke-width:0;stroke-miterlimit:4;stroke-dasharray:none"
         id="rect22257"
         width="13.555322"
         height="2.6510408"
         x="112.89432"
         y="250.3483" />
      <rect
         style="fill:#00395f;fill-opacity:1;stroke-width:0;stroke-miterlimit:4;stroke-dasharray:none"
         id="rect22259"
         width="13.555322"
         height="2.6510408"
         x="127.85018"
         y="250.3483" />
      <rect
         style="fill:#00395f;fill-opacity:1;stroke-width:0;stroke-miterlimit:4;stroke-dasharray:none"
         id="rect22261"
         width="13.555322"
         height="2.6510408"
         x="264.44028"
         y="-105.27322"
         transform="rotate(90)" />
      <rect
         style="fill:#00395f;fill-opacity:1;stroke-width:0;stroke-miterlimit:4;stroke-dasharray:none"
         id="rect22263"
         width="13.555322"
         height="2.6510408"
         x="279.39615"
         y="-105.27322"
         transform="rotate(90)" />
      <rect
         style="fill:#00395f;fill-opacity:1;stroke-width:0;stroke-miterlimit:4;stroke-dasharray:none"
         id="rect22265"
         width="13.555322"
         height="2.6510408"
         x="264.44028"
         y="-112.91297"
         transform="rotate(90)" />
      <rect
         style="fill:#00395f;fill-opacity:1;stroke-width:0;stroke-miterlimit:4;stroke-dasharray:none"
         id="rect22267"
         width="13.555322"
         height="2.6510408"
         x="279.39615"
         y="-112.91297"
         transform="rotate(90)" />
      <rect
         style="fill:#00395f;fill-opacity:1;stroke-width:0;stroke-miterlimit:4;stroke-dasharray:none"
         id="rect22269"
         width="13.555322"
         height="2.6510408"
         x="264.44028"
         y="-120.69421"
         transform="rotate(90)" />
      <rect
         style="fill:#00395f;fill-opacity:1;stroke-width:0;stroke-miterlimit:4;stroke-dasharray:none"
         id="rect22271"
         width="13.555322"
         height="2.6510408"
         x="279.39615"
         y="-120.69421"
         transform="rotate(90)" />
      <rect
         style="fill:#00395f;fill-opacity:1;stroke-width:0;stroke-miterlimit:4;stroke-dasharray:none"
         id="rect22273"
         width="13.555322"
         height="2.6510408"
         x="264.44028"
         y="-128.19247"
         transform="rotate(90)" />
      <rect
         style="fill:#00395f;fill-opacity:1;stroke-width:0;stroke-miterlimit:4;stroke-dasharray:none"
         id="rect22275"
         width="13.555322"
         height="2.6510408"
         x="279.39615"
         y="-128.19247"
         transform="rotate(90)" />
      <rect
         style="fill:#00395f;fill-opacity:1;stroke-width:0;stroke-miterlimit:4;stroke-dasharray:none"
         id="rect22277"
         width="13.555322"
         height="2.6510408"
         x="264.44028"
         y="-136.04445"
         transform="rotate(90)" />
      <rect
         style="fill:#00395f;fill-opacity:1;stroke-width:0;stroke-miterlimit:4;stroke-dasharray:none"
         id="rect22279"
         width="13.555322"
         height="2.6510408"
         x="279.39615"
         y="-136.04445"
         transform="rotate(90)" />
      <rect
         style="fill:#00395f;fill-opacity:1;stroke-width:0;stroke-miterlimit:4;stroke-dasharray:none"
         id="rect22281"
         width="13.555322"
         height="2.6510408"
         x="264.44028"
         y="-143.6842"
         transform="rotate(90)" />
      <rect
         style="fill:#00395f;fill-opacity:1;stroke-width:0;stroke-miterlimit:4;stroke-dasharray:none"
         id="rect22283"
         width="13.555322"
         height="2.6510408"
         x="279.39615"
         y="-143.6842"
         transform="rotate(90)" />
      <rect
         style="fill:#00395f;fill-opacity:1;stroke-width:0;stroke-miterlimit:4;stroke-dasharray:none"
         id="rect22285"
         width="13.555322"
         height="2.6510408"
         x="264.44028"
         y="-151.32396"
         transform="rotate(90)" />
      <rect
         style="fill:#00395f;fill-opacity:1;stroke-width:0;stroke-miterlimit:4;stroke-dasharray:none"
         id="rect22287"
         width="13.555322"
         height="2.6510408"
         x="279.39615"
         y="-151.32396"
         transform="rotate(90)" />
      <path
         style="fill:none;stroke:#7c8c95;stroke-width:0.665;stroke-linecap:butt;stroke-linejoin:round;stroke-miterlimit:4;stroke-dasharray:none;stroke-opacity:1;paint-order:normal"
         d="m 103.99061,243.59563 h 45.85412 v 15.90638 h -45.90925 z"
         id="path23906" />
      <path
         style="fill:none;stroke:#7c8c95;stroke-width:0.737;stroke-linecap:butt;stroke-linejoin:round;stroke-miterlimit:4;stroke-dasharray:none;stroke-opacity:1"
         d="m 94.822559,259.80189 h 62.074381 v 38.09637 H 94.747929 Z"
         id="path23988" />
      <rect
         style="fill:#00395f;fill-opacity:1;stroke:#cde2f6;stroke-width:0;stroke-miterlimit:4;stroke-dasharray:none;stroke-opacity:1"
         id="rect55059"
         width="5.6947427"
         height="47.353714"
         x="62.386745"
         y="249.64778" />
      <path
         id="rect24012"
         style="fill:#328cd5;fill-opacity:0.938298;stroke-width:1.03802;stroke-miterlimit:4;stroke-dasharray:none"
         d="m 61.074162,249.64779 v 48.21928 h 8.203117 v -48.21928 h -1.195793 v 3.63698 h -5.694742 v -3.63698 z m 1.312582,4.57438 h 5.694742 v 4.01423 h -5.694742 z m 0,4.84571 h 5.694742 v 4.01423 h -5.694742 z m 0,4.91598 h 5.694742 v 4.01474 h -5.694742 z m 0,4.81055 h 5.694742 v 4.01423 h -5.694742 z m 0,4.88085 h 5.694742 v 4.0142 h -5.694742 z m 0,4.77488 h 5.694742 v 4.01423 h -5.694742 z m 0,4.88085 h 5.694742 v 4.01423 h -5.694742 z m 0,4.84571 h 5.694742 v 4.01421 h -5.694742 z m 0,4.81005 h 5.694742 v 4.01473 h -5.694742 z" />
      <g
         id="g54987"
         transform="translate(69.627334,-60.023564)">
        <rect
           style="fill:#328cd5;fill-opacity:1;stroke-width:0.537001;stroke-miterlimit:4;stroke-dasharray:none"
           id="rect33356"
           width="37.449833"
           height="4.23704"
           x="-12.054731"
           y="303.36911" />
        <path
           style="fill:#328cd5;fill-opacity:1;stroke:#000000;stroke-width:0;stroke-linecap:butt;stroke-linejoin:miter;stroke-miterlimit:4;stroke-dasharray:none;stroke-opacity:1"
           d="m -11.919428,301.87632 c -0.02605,-0.6184 -1.726736,-0.68815 -1.768462,0 v 5.74444 c -0.571907,0.0272 -0.550178,2.08028 0,2.10752 h 40.816084 c 0.608935,-0.0239 0.563936,-1.99578 0,-2.0575 v -6.00668 c -0.07075,-0.628 -1.714566,-0.66293 -1.733091,0 v 5.94204 h -37.349901 z"
           id="path32038"
           sodipodi:nodetypes="ccccccccccc" />
        <path
           style="fill:#cde2f6;fill-opacity:1;stroke:#cde2f6;stroke-width:0.264583px;stroke-linecap:butt;stroke-linejoin:miter;stroke-opacity:1"
           d="M -12.054732,305.51993 H 25.359956"
           id="path33236" />
        <path
           style="fill:#cde2f6;fill-opacity:1;stroke:#cde2f6;stroke-width:0.264583px;stroke-linecap:butt;stroke-linejoin:miter;stroke-opacity:1"
           d="M 25.409975,303.3691 H -12.054732"
           id="path33238" />
        <path
           style="fill:#cde2f6;fill-opacity:1;stroke:#cde2f6;stroke-width:0.264583px;stroke-linecap:butt;stroke-linejoin:miter;stroke-opacity:1"
           d="M -7.9031025,307.52073 V 302.1186"
           id="path33240" />
        <path
           style="fill:#cde2f6;fill-opacity:1;stroke:#cde2f6;stroke-width:0.264583px;stroke-linecap:butt;stroke-linejoin:miter;stroke-opacity:1"
           d="m -3.0511977,307.62077 v -5.40213"
           id="path33242" />
        <path
           style="fill:#cde2f6;fill-opacity:1;stroke:#cde2f6;stroke-width:0.264583px;stroke-linecap:butt;stroke-linejoin:miter;stroke-opacity:1"
           d="m 1.8507265,307.52073 v -5.35212"
           id="path33244" />
        <path
           style="fill:#cde2f6;fill-opacity:1;stroke:#cde2f6;stroke-width:0.264583px;stroke-linecap:butt;stroke-linejoin:miter;stroke-opacity:1"
           d="m 6.8026705,307.52073 v -5.60221"
           id="path33246" />
        <path
           style="fill:#cde2f6;fill-opacity:1;stroke:#cde2f6;stroke-width:0.264583px;stroke-linecap:butt;stroke-linejoin:miter;stroke-opacity:1"
           d="m 11.554536,307.4707 v -5.45214"
           id="path33248" />
        <path
           style="fill:#cde2f6;fill-opacity:1;stroke:#cde2f6;stroke-width:0.264583px;stroke-linecap:butt;stroke-linejoin:miter;stroke-opacity:1"
           d="m 16.45646,307.52073 v -5.45216"
           id="path33250" />
        <path
           style="fill:#cde2f6;fill-opacity:1;stroke:#cde2f6;stroke-width:0.264583px;stroke-linecap:butt;stroke-linejoin:miter;stroke-opacity:1"
           d="m 21.358385,307.4707 v -5.20205"
           id="path33252" />
      </g>
      <g
         id="g55011"
         transform="translate(69.627334,-80.431576)">
        <rect
           style="fill:#328cd5;fill-opacity:1;stroke-width:0.537001;stroke-miterlimit:4;stroke-dasharray:none"
           id="rect54989"
           width="37.449833"
           height="4.23704"
           x="-12.054731"
           y="303.36911" />
        <path
           style="fill:#328cd5;fill-opacity:1;stroke:#000000;stroke-width:0;stroke-linecap:butt;stroke-linejoin:miter;stroke-miterlimit:4;stroke-dasharray:none;stroke-opacity:1"
           d="m -11.919428,301.87632 c -0.02605,-0.6184 -1.726736,-0.68815 -1.768462,0 v 5.74444 c -0.571907,0.0272 -0.550178,2.08028 0,2.10752 h 40.816084 c 0.608935,-0.0239 0.563936,-1.99578 0,-2.0575 v -6.00668 c -0.07075,-0.628 -1.714566,-0.66293 -1.733091,0 v 5.94204 h -37.349901 z"
           id="path54991"
           sodipodi:nodetypes="ccccccccccc" />
        <path
           style="fill:#cde2f6;fill-opacity:1;stroke:#cde2f6;stroke-width:0.264583px;stroke-linecap:butt;stroke-linejoin:miter;stroke-opacity:1"
           d="M -12.054732,305.51993 H 25.359956"
           id="path54993" />
        <path
           style="fill:#cde2f6;fill-opacity:1;stroke:#cde2f6;stroke-width:0.264583px;stroke-linecap:butt;stroke-linejoin:miter;stroke-opacity:1"
           d="M 25.409975,303.3691 H -12.054732"
           id="path54995" />
        <path
           style="fill:#cde2f6;fill-opacity:1;stroke:#cde2f6;stroke-width:0.264583px;stroke-linecap:butt;stroke-linejoin:miter;stroke-opacity:1"
           d="M -7.9031025,307.52073 V 302.1186"
           id="path54997" />
        <path
           style="fill:#cde2f6;fill-opacity:1;stroke:#cde2f6;stroke-width:0.264583px;stroke-linecap:butt;stroke-linejoin:miter;stroke-opacity:1"
           d="m -3.0511977,307.62077 v -5.40213"
           id="path54999" />
        <path
           style="fill:#cde2f6;fill-opacity:1;stroke:#cde2f6;stroke-width:0.264583px;stroke-linecap:butt;stroke-linejoin:miter;stroke-opacity:1"
           d="m 1.8507265,307.52073 v -5.35212"
           id="path55001" />
        <path
           style="fill:#cde2f6;fill-opacity:1;stroke:#cde2f6;stroke-width:0.264583px;stroke-linecap:butt;stroke-linejoin:miter;stroke-opacity:1"
           d="m 6.8026705,307.52073 v -5.60221"
           id="path55003" />
        <path
           style="fill:#cde2f6;fill-opacity:1;stroke:#cde2f6;stroke-width:0.264583px;stroke-linecap:butt;stroke-linejoin:miter;stroke-opacity:1"
           d="m 11.554536,307.4707 v -5.45214"
           id="path55005" />
        <path
           style="fill:#cde2f6;fill-opacity:1;stroke:#cde2f6;stroke-width:0.264583px;stroke-linecap:butt;stroke-linejoin:miter;stroke-opacity:1"
           d="m 16.45646,307.52073 v -5.45216"
           id="path55007" />
        <path
           style="fill:#cde2f6;fill-opacity:1;stroke:#cde2f6;stroke-width:0.264583px;stroke-linecap:butt;stroke-linejoin:miter;stroke-opacity:1"
           d="m 21.358385,307.4707 v -5.20205"
           id="path55009" />
      </g>
      <path
         style="fill:#328cd5;fill-opacity:1;stroke:#000000;stroke-width:0;stroke-linecap:butt;stroke-linejoin:miter;stroke-miterlimit:4;stroke-dasharray:none;stroke-opacity:1"
         d="m 71.127923,194.07619 h 10.629173 c 0.690704,0.005 0.447189,1.30994 0,1.59438 l -0.462113,0.30575 v 6.87832 h -9.666864 v -6.87832 l -0.487691,-0.30575 c -0.547574,-0.36129 -0.564477,-1.51573 -0.01251,-1.59438 z"
         id="path59460"
         sodipodi:nodetypes="ccccccccc" />
      <g
         id="g55035"
         transform="matrix(0.75167043,0,0,0.95974621,71.279483,-88.752023)">
        <rect
           style="fill:#328cd5;fill-opacity:1;stroke-width:0.537001;stroke-miterlimit:4;stroke-dasharray:none"
           id="rect55013"
           width="37.449833"
           height="4.23704"
           x="-12.054731"
           y="303.36911" />
        <path
           style="fill:#328cd5;fill-opacity:1;stroke:#000000;stroke-width:0;stroke-linecap:butt;stroke-linejoin:miter;stroke-miterlimit:4;stroke-dasharray:none;stroke-opacity:1"
           d="m -11.919428,301.87632 c -0.02605,-0.6184 -1.726736,-0.68815 -1.768462,0 v 5.74444 c -0.571907,0.0272 -0.550178,2.08028 0,2.10752 h 40.816084 c 0.608935,-0.0239 0.563936,-1.99578 0,-2.0575 v -6.00668 c -0.07075,-0.628 -1.714566,-0.66293 -1.733091,0 v 5.94204 h -37.349901 z"
           id="path55015"
           sodipodi:nodetypes="ccccccccccc" />
        <path
           style="fill:#cde2f6;fill-opacity:1;stroke:#cde2f6;stroke-width:0.264583px;stroke-linecap:butt;stroke-linejoin:miter;stroke-opacity:1"
           d="M -12.054732,305.51993 H 25.359956"
           id="path55017" />
        <path
           style="fill:#cde2f6;fill-opacity:1;stroke:#cde2f6;stroke-width:0.264583px;stroke-linecap:butt;stroke-linejoin:miter;stroke-opacity:1"
           d="M 25.409975,303.3691 H -12.054732"
           id="path55019" />
        <path
           style="fill:#cde2f6;fill-opacity:1;stroke:#cde2f6;stroke-width:0.264583px;stroke-linecap:butt;stroke-linejoin:miter;stroke-opacity:1"
           d="M -7.9031025,307.52073 V 302.1186"
           id="path55021" />
        <path
           style="fill:#cde2f6;fill-opacity:1;stroke:#cde2f6;stroke-width:0.264583px;stroke-linecap:butt;stroke-linejoin:miter;stroke-opacity:1"
           d="m -3.0511977,307.62077 v -5.40213"
           id="path55023" />
        <path
           style="fill:#cde2f6;fill-opacity:1;stroke:#cde2f6;stroke-width:0.264583px;stroke-linecap:butt;stroke-linejoin:miter;stroke-opacity:1"
           d="m 1.8507265,307.52073 v -5.35212"
           id="path55025" />
        <path
           style="fill:#cde2f6;fill-opacity:1;stroke:#cde2f6;stroke-width:0.264583px;stroke-linecap:butt;stroke-linejoin:miter;stroke-opacity:1"
           d="m 6.8026705,307.52073 v -5.60221"
           id="path55027" />
        <path
           style="fill:#cde2f6;fill-opacity:1;stroke:#cde2f6;stroke-width:0.264583px;stroke-linecap:butt;stroke-linejoin:miter;stroke-opacity:1"
           d="m 11.554536,307.4707 v -5.45214"
           id="path55029" />
        <path
           style="fill:#cde2f6;fill-opacity:1;stroke:#cde2f6;stroke-width:0.264583px;stroke-linecap:butt;stroke-linejoin:miter;stroke-opacity:1"
           d="m 16.45646,307.52073 v -5.45216"
           id="path55031" />
        <path
           style="fill:#cde2f6;fill-opacity:1;stroke:#cde2f6;stroke-width:0.264583px;stroke-linecap:butt;stroke-linejoin:miter;stroke-opacity:1"
           d="m 21.358385,307.4707 v -5.20205"
           id="path55033" />
      </g>
    </g>
  </g>
</svg>
