<svg id="eXG3BmHRTtx1" xmlns="http://www.w3.org/2000/svg" xmlns:xlink="http://www.w3.org/1999/xlink" viewBox="0 0 285.9238 285.90982" shape-rendering="geometricPrecision" text-rendering="geometricPrecision"><style><![CDATA[#eXG3BmHRTtx3 {animation: eXG3BmHRTtx3_c_o 7000ms linear infinite normal forwards}@keyframes eXG3BmHRTtx3_c_o { 0% {opacity: 0} 14.285714% {opacity: 0} 35.714286% {opacity: 1} 71.428571% {opacity: 0} 100% {opacity: 0}} #eXG3BmHRTtx9 {animation: eXG3BmHRTtx9_c_o 7000ms linear infinite normal forwards}@keyframes eXG3BmHRTtx9_c_o { 0% {opacity: 0} 42.857143% {opacity: 0} 57.142857% {opacity: 1} 100% {opacity: 0}} #eXG3BmHRTtx20 {animation: eXG3BmHRTtx20_c_o 7000ms linear infinite normal forwards}@keyframes eXG3BmHRTtx20_c_o { 0% {opacity: 0} 28.571429% {opacity: 0} 42.857143% {opacity: 1} 85.714286% {opacity: 0} 100% {opacity: 0}}]]></style><g id="eXG3BmHRTtx2" transform="matrix(1 0 0 1 -55.5186 -12.3569)"><g id="eXG3BmHRTtx3" transform="matrix(1 0 0 1 92.2429 0)" opacity="0"><circle id="eXG3BmHRTtx4" r="32.3093" transform="matrix(1 0 0 1 112.475 134.551)" fill="rgb(0,123,159)" stroke="none" stroke-width="0.439827"/><g id="eXG3BmHRTtx5"><path id="eXG3BmHRTtx6" d="M103.44787,123.69941Q103.8995,123.93851,103.95263,124.4167Q104.03233,124.8949,103.71353,125.2934Q103.47443,125.63876,103.1025,125.66532Q102.73057,125.69192,102.35864,125.50593Q101.48195,124.9746,100.47243,124.68237Q99.462907,124.36357,98.347118,124.36357Q96.779701,124.36357,95.477947,124.92147Q94.176193,125.45279,93.219803,126.43575Q92.263413,127.41871,91.732085,128.77359Q91.200757,130.12848,91.200757,131.7756Q91.200757,133.52898,91.758651,134.91043Q92.316545,136.29189,93.272936,137.27484Q94.255893,138.23123,95.53108,138.73599Q96.832834,139.24076,98.347118,139.24076Q99.436341,139.24076,100.44586,138.94853Q101.45539,138.65629,102.35864,138.0984Q102.73057,137.91244,103.1025,137.96557Q103.47443,138.01867,103.7401,138.3375Q104.05889,138.76256,103.9792,139.24076Q103.8995,139.69238,103.47443,139.90492Q102.81027,140.30341,101.96015,140.64877Q101.11002,140.96757,100.1802,141.15354Q99.276942,141.3395,98.347118,141.3395Q96.434338,141.3395,94.734088,140.67534Q93.033838,140.01118,91.732085,138.76256Q90.430331,137.51394,89.659905,135.76056Q88.916046,133.98061,88.916046,131.7756Q88.916046,129.70342,89.633339,127.9766Q90.350632,126.24979,91.625819,124.9746Q92.927573,123.69941,94.627822,122.98212Q96.354638,122.26483,98.347118,122.26483Q99.728571,122.26483,101.03032,122.63676Q102.35864,123.00868,103.44787,123.69941Z" fill="rgb(255,255,255)" stroke="none" stroke-width="0.664162"/><path id="eXG3BmHRTtx7" d="M123.95709,131.7756Q123.95709,133.82121,123.29293,135.57459Q122.62877,137.30141,121.43328,138.60316Q120.23779,139.90492,118.59068,140.62221Q116.94356,141.3395,115.00421,141.3395Q113.0383,141.3395,111.39118,140.62221Q109.77063,139.90492,108.57514,138.60316Q107.37966,137.30141,106.7155,135.57459Q106.05134,133.82121,106.05134,131.7756Q106.05134,129.70342,106.7155,127.9766Q107.37966,126.22322,108.57514,124.94803Q109.77063,123.64628,111.39118,122.92899Q113.0383,122.21169,115.00421,122.21169Q116.94356,122.21169,118.59068,122.92899Q120.23779,123.64628,121.43328,124.94803Q122.62877,126.22322,123.29293,127.9766Q123.95709,129.70342,123.95709,131.7756ZM121.67238,131.7756Q121.67238,129.59715,120.79569,127.92347Q119.94556,126.24979,118.45785,125.2934Q116.97013,124.337,115.00421,124.337Q113.0383,124.337,111.52401,125.2934Q110.0363,126.24979,109.18617,127.92347Q108.33605,129.59715,108.33605,131.7756Q108.33605,133.92748,109.18617,135.62773Q110.0363,137.30141,111.52401,138.2578Q113.0383,139.21419,115.00421,139.21419Q116.97013,139.21419,118.45785,138.2578Q119.94556,137.30141,120.79569,135.62773Q121.67238,133.92748,121.67238,131.7756Z" fill="rgb(255,255,255)" stroke="none" stroke-width="0.664162"/><path id="eXG3BmHRTtx8" d="M133.25136,145.092Q133.52765,145.092,133.7176,145.28195Q133.90755,145.4719,133.90755,145.74819Q133.90755,146.02449,133.7176,146.21444Q133.52765,146.38712,133.25136,146.38712L126.98301,146.38712Q126.67218,146.38712,126.46496,146.21444Q126.27501,146.02449,126.27501,145.71366Q126.27501,145.43737,126.48223,145.21288L130.38484,140.94763Q131.24825,140.01515,131.67996,139.20355Q132.12893,138.37467,132.12893,137.73575Q132.12893,136.68239,131.49001,136.06073Q130.86835,135.42181,129.81499,135.42181Q129.34875,135.42181,128.88251,135.62903Q128.41627,135.81898,128.03637,136.16434Q127.65647,136.49244,127.41471,136.90688Q127.27657,137.13136,127.12115,137.20044Q126.98301,137.25224,126.82759,137.25224Q126.56857,137.25224,126.36135,137.07956Q126.15413,136.88961,126.15413,136.64785Q126.15413,136.4579,126.25774,136.30249Q126.36135,136.12981,126.53403,135.92259Q126.89666,135.42181,127.43198,135.02464Q127.98456,134.61021,128.62348,134.36845Q129.27968,134.1267,129.90133,134.1267Q131.0065,134.1267,131.8181,134.5584Q132.64698,134.99011,133.09595,135.78444Q133.54492,136.57878,133.54492,137.64941Q133.54492,138.56462,132.99234,139.66979Q132.43976,140.77495,131.36913,141.91465L128.34719,145.26468L128.17451,145.092Z" fill="rgb(255,255,255)" stroke="none" stroke-width="0.664162"/></g></g><g id="eXG3BmHRTtx9" transform="matrix(1 0 0 1 92.2429 0)" opacity="0"><circle id="eXG3BmHRTtx10" r="19.4361" transform="matrix(1 0 0 1 112.223 31.793)" fill="rgb(0,123,159)" stroke="none" stroke-width="0.264583"/><g id="eXG3BmHRTtx11"><g id="eXG3BmHRTtx12"><path id="eXG3BmHRTtx13" d="M107.27278,25.231562Q107.53091,25.36822,107.56128,25.641536Q107.60688,25.914851,107.42462,26.142614Q107.28796,26.340009,107.07538,26.355193Q106.8628,26.370373,106.65022,26.264093Q106.14915,25.960409,105.57215,25.793383Q104.99515,25.611172,104.35741,25.611172Q103.46154,25.611172,102.71752,25.93004Q101.97349,26.233724,101.42686,26.79554Q100.88023,27.357355,100.57654,28.13175Q100.27286,28.906144,100.27286,29.847564Q100.27286,30.849721,100.59173,31.6393Q100.9106,32.428878,101.45723,32.990694Q102.01904,33.537325,102.74788,33.825825Q103.49191,34.114324,104.35741,34.114324Q104.97996,34.114324,105.55696,33.947298Q106.13396,33.780272,106.65022,33.461404Q106.8628,33.355114,107.07538,33.385484Q107.28796,33.415854,107.4398,33.598063Q107.62201,33.84101,107.57646,34.114325Q107.53096,34.372457,107.28796,34.49393Q106.90836,34.721693,106.42246,34.919088Q105.93657,35.101298,105.40512,35.207588Q104.88886,35.313877,104.35741,35.313877Q103.26415,35.313877,102.29236,34.934272Q101.32057,34.554667,100.57654,33.84101Q99.832518,33.127352,99.392176,32.125195Q98.967019,31.107854,98.967019,29.847565Q98.967019,28.663198,99.376992,27.676225Q99.786965,26.689252,100.51581,25.96041Q101.25983,25.231568,102.23162,24.821595Q103.21859,24.411621,104.35741,24.411621Q105.14699,24.411621,105.89101,24.6242Q106.65022,24.836779,107.27278,25.231568Z" fill="rgb(0,0,0)" stroke="none" stroke-width="0.379605"/><path id="eXG3BmHRTtx14" d="M118.99496,29.847559Q118.99496,31.016743,118.61535,32.0189Q118.23575,33.005873,117.55246,33.749899Q116.86917,34.493924,115.92775,34.903898Q114.98633,35.313871,113.87788,35.313871Q112.75425,35.313871,111.81283,34.903898Q110.88659,34.493924,110.2033,33.749899Q109.52002,33.005873,109.14041,32.0189Q108.76081,31.016743,108.76081,29.847559Q108.76081,28.663192,109.14041,27.676219Q109.52002,26.674061,110.2033,25.94522Q110.88659,25.201194,111.81283,24.79122Q112.75425,24.381247,113.87788,24.381247Q114.98633,24.381247,115.92775,24.79122Q116.86917,25.201194,117.55246,25.94522Q118.23575,26.674061,118.61535,27.676219Q118.99496,28.663192,118.99496,29.847559ZM117.68912,29.847559Q117.68912,28.602455,117.18804,27.64585Q116.70214,26.689246,115.85183,26.142614Q115.00151,25.595983,113.87788,25.595983Q112.75425,25.595983,111.88875,26.142614Q111.03844,26.689246,110.55254,27.64585Q110.06665,28.602455,110.06665,29.847559Q110.06665,31.077479,110.55254,32.049268Q111.03844,33.005873,111.88875,33.552504Q112.75425,34.099135,113.87788,34.099135Q115.00151,34.099135,115.85183,33.552504Q116.70214,33.005873,117.18804,32.049268Q117.68912,31.077479,117.68912,29.847559Z" fill="rgb(0,0,0)" stroke="none" stroke-width="0.379605"/><path id="eXG3BmHRTtx15" d="M124.30715,37.458639Q124.46506,37.458639,124.57363,37.567207Q124.6822,37.675774,124.6822,37.833689Q124.6822,37.991605,124.57363,38.100172Q124.46506,38.198872,124.30715,38.198872L120.72444,38.198872Q120.54678,38.198872,120.42835,38.100172Q120.31978,37.991605,120.31978,37.81395Q120.31978,37.656034,120.43821,37.527728L122.66877,35.089904Q123.16226,34.556939,123.409,34.093062Q123.66562,33.619315,123.66562,33.254135Q123.66562,32.652081,123.30044,32.296771Q122.94513,31.931591,122.34307,31.931591Q122.07659,31.931591,121.81011,32.050027Q121.54362,32.158594,121.32649,32.355989Q121.10936,32.543514,120.97118,32.780387Q120.89218,32.908694,120.80339,32.948173Q120.72449,32.977783,120.63561,32.977783Q120.48756,32.977783,120.36913,32.879083Q120.25069,32.770516,120.25069,32.63234Q120.25069,32.523772,120.30989,32.434945Q120.36909,32.336245,120.4678,32.217811Q120.67507,31.931589,120.98103,31.704585Q121.29686,31.467711,121.66204,31.329535Q122.03709,31.191359,122.3924,31.191359Q123.02406,31.191359,123.48794,31.438102Q123.96169,31.684845,124.2183,32.138853Q124.47491,32.592861,124.47491,33.204784Q124.47491,33.72788,124.15908,34.359542Q123.84325,34.991205,123.23133,35.642607L121.50413,37.557335L121.40543,37.458635Z" fill="rgb(0,0,0)" stroke="none" stroke-width="0.379605"/></g><g id="eXG3BmHRTtx16"><path id="eXG3BmHRTtx17" d="M107.27278,25.231562Q107.53091,25.36822,107.56128,25.641536Q107.60688,25.914851,107.42462,26.142614Q107.28796,26.340009,107.07538,26.355193Q106.8628,26.370373,106.65022,26.264093Q106.14915,25.960409,105.57215,25.793383Q104.99515,25.611172,104.35741,25.611172Q103.46154,25.611172,102.71752,25.93004Q101.97349,26.233724,101.42686,26.79554Q100.88023,27.357355,100.57654,28.13175Q100.27286,28.906144,100.27286,29.847564Q100.27286,30.849721,100.59173,31.6393Q100.9106,32.428878,101.45723,32.990694Q102.01904,33.537325,102.74788,33.825825Q103.49191,34.114324,104.35741,34.114324Q104.97996,34.114324,105.55696,33.947298Q106.13396,33.780272,106.65022,33.461404Q106.8628,33.355114,107.07538,33.385484Q107.28796,33.415854,107.4398,33.598063Q107.62201,33.84101,107.57646,34.114325Q107.53096,34.372457,107.28796,34.49393Q106.90836,34.721693,106.42246,34.919088Q105.93657,35.101298,105.40512,35.207588Q104.88886,35.313877,104.35741,35.313877Q103.26415,35.313877,102.29236,34.934272Q101.32057,34.554667,100.57654,33.84101Q99.832518,33.127352,99.392176,32.125195Q98.967019,31.107854,98.967019,29.847565Q98.967019,28.663198,99.376992,27.676225Q99.786965,26.689252,100.51581,25.96041Q101.25983,25.231568,102.23162,24.821595Q103.21859,24.411621,104.35741,24.411621Q105.14699,24.411621,105.89101,24.6242Q106.65022,24.836779,107.27278,25.231568Z" fill="rgb(255,255,255)" stroke="none" stroke-width="0.379605"/><path id="eXG3BmHRTtx18" d="M118.99496,29.847559Q118.99496,31.016743,118.61535,32.0189Q118.23575,33.005873,117.55246,33.749899Q116.86917,34.493924,115.92775,34.903898Q114.98633,35.313871,113.87788,35.313871Q112.75425,35.313871,111.81283,34.903898Q110.88659,34.493924,110.2033,33.749899Q109.52002,33.005873,109.14041,32.0189Q108.76081,31.016743,108.76081,29.847559Q108.76081,28.663192,109.14041,27.676219Q109.52002,26.674061,110.2033,25.94522Q110.88659,25.201194,111.81283,24.79122Q112.75425,24.381247,113.87788,24.381247Q114.98633,24.381247,115.92775,24.79122Q116.86917,25.201194,117.55246,25.94522Q118.23575,26.674061,118.61535,27.676219Q118.99496,28.663192,118.99496,29.847559ZM117.68912,29.847559Q117.68912,28.602455,117.18804,27.64585Q116.70214,26.689246,115.85183,26.142614Q115.00151,25.595983,113.87788,25.595983Q112.75425,25.595983,111.88875,26.142614Q111.03844,26.689246,110.55254,27.64585Q110.06665,28.602455,110.06665,29.847559Q110.06665,31.077479,110.55254,32.049268Q111.03844,33.005873,111.88875,33.552504Q112.75425,34.099135,113.87788,34.099135Q115.00151,34.099135,115.85183,33.552504Q116.70214,33.005873,117.18804,32.049268Q117.68912,31.077479,117.68912,29.847559Z" fill="rgb(255,255,255)" stroke="none" stroke-width="0.379605"/><path id="eXG3BmHRTtx19" d="M124.30715,37.458639Q124.46506,37.458639,124.57363,37.567207Q124.6822,37.675774,124.6822,37.833689Q124.6822,37.991605,124.57363,38.100172Q124.46506,38.198872,124.30715,38.198872L120.72444,38.198872Q120.54678,38.198872,120.42835,38.100172Q120.31978,37.991605,120.31978,37.81395Q120.31978,37.656034,120.43821,37.527728L122.66877,35.089904Q123.16226,34.556939,123.409,34.093062Q123.66562,33.619315,123.66562,33.254135Q123.66562,32.652081,123.30044,32.296771Q122.94513,31.931591,122.34307,31.931591Q122.07659,31.931591,121.81011,32.050027Q121.54362,32.158594,121.32649,32.355989Q121.10936,32.543514,120.97118,32.780387Q120.89218,32.908694,120.80339,32.948173Q120.72449,32.977783,120.63561,32.977783Q120.48756,32.977783,120.36913,32.879083Q120.25069,32.770516,120.25069,32.63234Q120.25069,32.523772,120.30989,32.434945Q120.36909,32.336245,120.4678,32.217811Q120.67507,31.931589,120.98103,31.704585Q121.29686,31.467711,121.66204,31.329535Q122.03709,31.191359,122.3924,31.191359Q123.02406,31.191359,123.48794,31.438102Q123.96169,31.684845,124.2183,32.138853Q124.47491,32.592861,124.47491,33.204784Q124.47491,33.72788,124.15908,34.359542Q123.84325,34.991205,123.23133,35.642607L121.50413,37.557335L121.40543,37.458635Z" fill="rgb(255,255,255)" stroke="none" stroke-width="0.379605"/></g></g></g><g id="eXG3BmHRTtx20" transform="matrix(1 0 0 1 92.2429 0)" opacity="0"><circle id="eXG3BmHRTtx21" r="25.2417" transform="matrix(1 0 0 1 81.1754 76.9999)" fill="rgb(0,123,159)" stroke="none" stroke-width="0.343615"/><g id="eXG3BmHRTtx22"><path id="eXG3BmHRTtx23" d="M74.544938,68.4945Q74.878318,68.670995,74.917539,69.023986Q74.976369,69.376977,74.741044,69.671136Q74.564548,69.926074,74.29,69.945684Q74.015452,69.965294,73.740903,69.828021Q73.093754,69.435809,72.348551,69.220092Q71.603348,68.984765,70.779703,68.984765Q69.622677,68.984765,68.661758,69.396587Q67.700839,69.788799,66.994857,70.514392Q66.288875,71.239984,65.896663,72.240124Q65.504451,73.240265,65.504451,74.456122Q65.504451,75.750422,65.916274,76.770173Q66.328097,77.789924,67.034078,78.515516Q67.75967,79.221498,68.700979,79.594099Q69.661899,79.9667,70.779703,79.9667Q71.583737,79.9667,72.32894,79.750984Q73.074143,79.535267,73.740903,79.123445Q74.015452,78.986171,74.29,79.025395Q74.564548,79.064615,74.760654,79.299943Q74.995982,79.613713,74.93715,79.966703Q74.87832,80.300084,74.564548,80.456968Q74.074283,80.751127,73.446744,81.006065Q72.819205,81.241392,72.132834,81.378667Q71.466074,81.515941,70.779703,81.515941Q69.36774,81.515941,68.112661,81.025676Q66.857583,80.535411,65.896663,79.613713Q64.935744,78.692015,64.367037,77.397715Q63.81794,76.083805,63.81794,74.456125Q63.81794,72.926498,64.347426,71.651809Q64.876912,70.37712,65.818221,69.435812Q66.77914,68.494503,68.034219,67.965017Q69.308908,67.43553,70.779703,67.43553Q71.799454,67.43553,72.760373,67.710079Q73.740903,67.984627,74.544938,68.494503Z" fill="rgb(255,255,255)" stroke="none" stroke-width="0.490266"/><path id="eXG3BmHRTtx24" d="M89.684292,74.456122Q89.684292,75.966138,89.194027,77.260438Q88.703763,78.535127,87.821286,79.496046Q86.938809,80.456965,85.722951,80.986452Q84.507094,81.515938,83.07552,81.515938Q81.624336,81.515938,80.408479,80.986452Q79.212232,80.456965,78.329755,79.496046Q77.447278,78.535127,76.957013,77.260438Q76.466748,75.966138,76.466748,74.456122Q76.466748,72.926495,76.957013,71.651806Q77.447278,70.357507,78.329755,69.416198Q79.212232,68.455279,80.408479,67.925792Q81.624336,67.396306,83.07552,67.396306Q84.507094,67.396306,85.722951,67.925792Q86.938809,68.455279,87.821286,69.416198Q88.703763,70.357507,89.194027,71.651806Q89.684292,72.926495,89.684292,74.456122ZM87.997781,74.456122Q87.997781,72.848053,87.350631,71.612585Q86.723092,70.377117,85.624898,69.671136Q84.526705,68.965154,83.07552,68.965154Q81.624336,68.965154,80.506532,69.671136Q79.408338,70.377117,78.780799,71.612585Q78.15326,72.848053,78.15326,74.456122Q78.15326,76.044581,78.780799,77.299659Q79.408338,78.535127,80.506532,79.241108Q81.624336,79.94709,83.07552,79.94709Q84.526705,79.94709,85.624898,79.241108Q86.723092,78.535127,87.350631,77.299659Q87.997781,76.044581,87.997781,74.456122Z" fill="rgb(255,255,255)" stroke="none" stroke-width="0.490266"/><path id="eXG3BmHRTtx25" d="M96.545065,84.285934Q96.749015,84.285934,96.889231,84.42615Q97.029447,84.566366,97.029447,84.770316Q97.029447,84.974267,96.889231,85.114483Q96.749015,85.241952,96.545065,85.241952L91.91794,85.241952Q91.688496,85.241952,91.535533,85.114483Q91.395317,84.974267,91.395317,84.744823Q91.395317,84.540872,91.54828,84.375163L94.429079,81.226678Q95.066424,80.538346,95.385097,79.939241Q95.716516,79.32739,95.716516,78.855755Q95.716516,78.078194,95.244881,77.619306Q94.785992,77.14767,94.008432,77.14767Q93.664265,77.14767,93.320099,77.300633Q92.975933,77.440849,92.695501,77.695787Q92.415069,77.937978,92.236612,78.243904Q92.134637,78.409614,92.019915,78.460601Q91.91794,78.498841,91.803218,78.498841Q91.612014,78.498841,91.459052,78.371372Q91.306089,78.231156,91.306089,78.052699Q91.306089,77.912483,91.382569,77.797761Q91.459049,77.670292,91.58652,77.51733Q91.854205,77.147669,92.249358,76.854491Q92.657259,76.548565,93.128894,76.370109Q93.613277,76.191652,94.072165,76.191652Q94.887967,76.191652,95.487071,76.510324Q96.098922,76.828997,96.430341,77.415354Q96.761761,78.001712,96.761761,78.79202Q96.761761,79.467605,96.35386,80.283407Q95.945959,81.099208,95.155652,81.940504L92.924944,84.413402L92.797475,84.285933Z" fill="rgb(255,255,255)" stroke="none" stroke-width="0.490266"/></g></g><g id="eXG3BmHRTtx26" transform="matrix(1 0 0 1 92.2429 0)"><path id="eXG3BmHRTtx27" d="M84.843459,178.03167C80.397504,178.00557,74.296696,180.45114,73.82191,189.05322L73.82191,194.31853L78.908421,194.31853L78.931161,188.37419C78.954331,184.23409,82.842173,182.97894,84.332899,182.97194L109.94322,182.97194L109.94322,243.59562L103.99061,243.59562L103.99061,259.80188L94.803061,259.80188L94.803061,216.81638C94.541971,212.99873,94.357689,210.48093,89.136223,207.00097L73.00904,207.00097L63.880915,207.00097C59.738325,208.82165,58.479308,212.53164,58.182038,216.87168L58.182038,297.89826L156.89694,297.89826L156.89694,259.53108L149.8736,259.53108L149.8736,243.92429L143.8104,243.92429L143.8104,187.69206C143.63333,181.23814,138.44324,178.25997,134.15001,178.03167ZM114.74499,182.87169L124.14855,182.97194L124.14855,243.69587L114.74499,243.69587ZM129.65106,183.17192L133.45238,183.17192C137.3999,183.14212,139.00215,184.93584,139.15487,188.8739L139.15487,243.79562L129.35082,243.79562Z" fill="rgb(205,226,246)" stroke="rgb(0,0,0)" stroke-width="0"/><path id="eXG3BmHRTtx28" d="M121.90305,240.68833C125.27491,240.68833,127.64231,240.68833,132.01865,240.68833L132.00095,242.58059L121.88535,242.58059Z" fill="rgb(206,237,254)" stroke="rgb(0,0,0)" stroke-width="0"/><path id="eXG3BmHRTtx29" d="M107.19829,240.66179C110.57016,240.66179,112.93755,240.66179,117.31389,240.66179L117.29619,242.55405L107.18059,242.55405Z" fill="rgb(206,237,254)" stroke="rgb(0,0,0)" stroke-width="0"/><path id="eXG3BmHRTtx30" d="M136.54591,240.67064C139.91777,240.67064,142.28516,240.67064,146.66151,240.67064L146.64381,242.5629L136.52821,242.5629Z" fill="rgb(206,237,254)" stroke="rgb(0,0,0)" stroke-width="0"/><path id="eXG3BmHRTtx31" d="M133.03569,177.67723C133.00379,176.99009,134.93362,176.99356,134.99869,177.67723L134.99869,183.24788C135.02229,183.97396,132.95906,184.02341,133.00032,183.24788Z" fill="rgb(55,146,206)" stroke="rgb(0,0,0)" stroke-width="0"/><path id="eXG3BmHRTtx32" d="M115.00398,198.46467C115.69111,198.43277,115.68765,200.36259,115.00398,200.42766L109.43332,200.42766C108.70725,200.45126,108.65779,198.38803,109.43332,198.4293Z" fill="rgb(55,146,206)" stroke="rgb(0,0,0)" stroke-width="0"/><path id="eXG3BmHRTtx33" d="M115.00398,217.52214C115.69111,217.49024,115.68765,219.42006,115.00398,219.48513L109.43332,219.48513C108.70725,219.50873,108.65779,217.4455,109.43332,217.48677Z" fill="rgb(55,146,206)" stroke="rgb(0,0,0)" stroke-width="0"/><path id="eXG3BmHRTtx34" d="M129.60971,188.6108C130.29684,188.5789,130.29338,190.50872,129.60971,190.57379L124.03905,190.57379C123.31298,190.59739,123.26352,188.53416,124.03905,188.57543Z" fill="rgb(55,146,206)" stroke="rgb(0,0,0)" stroke-width="0"/><path id="eXG3BmHRTtx35" d="M129.70975,208.06843C130.39688,208.03653,130.39342,209.96635,129.70975,210.03142L124.13909,210.03142C123.41302,210.05502,123.36356,207.99179,124.13909,208.03306Z" fill="rgb(55,146,206)" stroke="rgb(0,0,0)" stroke-width="0"/><path id="eXG3BmHRTtx36" d="M129.65973,227.37602C130.34686,227.34412,130.3434,229.27394,129.65973,229.33901L124.08907,229.33901C123.363,229.36261,123.31354,227.29938,124.08907,227.34065Z" fill="rgb(55,146,206)" stroke="rgb(0,0,0)" stroke-width="0"/><path id="eXG3BmHRTtx37" d="M115.20405,237.02983C115.89118,236.99793,115.88772,238.92775,115.20405,238.99282L109.63339,238.99282C108.90732,239.01642,108.85786,236.95319,109.63339,236.99446Z" fill="rgb(55,146,206)" stroke="rgb(0,0,0)" stroke-width="0"/><path id="eXG3BmHRTtx38" d="M144.21544,237.27993C144.90257,237.24803,144.89911,239.17785,144.21544,239.24292L138.64478,239.24292C137.91871,239.26652,137.86925,237.20329,138.64478,237.24456Z" fill="rgb(55,146,206)" stroke="rgb(0,0,0)" stroke-width="0"/><path id="eXG3BmHRTtx39" d="M144.41553,198.41465C145.10266,198.38275,145.0992,200.31257,144.41553,200.37764L138.84487,200.37764C138.1188,200.40124,138.06934,198.33801,138.84487,198.37928Z" fill="rgb(55,146,206)" stroke="rgb(0,0,0)" stroke-width="0"/><path id="eXG3BmHRTtx40" d="M144.51556,217.77225C145.20269,217.74035,145.19923,219.67017,144.51556,219.73524L138.9449,219.73524C138.21883,219.75884,138.16937,217.69561,138.9449,217.73688Z" fill="rgb(55,146,206)" stroke="rgb(0,0,0)" stroke-width="0"/><path id="eXG3BmHRTtx41" d="M118.18062,177.6065C118.14872,176.91936,120.07855,176.92283,120.14361,177.6065L120.14361,183.17715C120.16721,183.90323,118.10399,183.95268,118.14525,183.17715Z" fill="rgb(55,146,206)" stroke="rgb(0,0,0)" stroke-width="0"/><path id="eXG3BmHRTtx42" d="M85.172108,177.72836C85.140218,177.04122,87.070035,177.04469,87.1351,177.72836L87.1351,183.29901C87.15868,184.02509,85.095475,184.07454,85.136739,183.29901Z" fill="rgb(55,146,206)" stroke="rgb(0,0,0)" stroke-width="0"/><path id="eXG3BmHRTtx43" d="M104.84642,177.71261C104.81452,177.02547,106.74435,177.02894,106.80941,177.71261L106.80941,183.28326C106.83301,184.00934,104.76979,184.05879,104.81105,183.28326Z" fill="rgb(55,146,206)" stroke="rgb(0,0,0)" stroke-width="0"/><path id="eXG3BmHRTtx44" d="M107.15408,240.04894L117.26968,240.04894L117.26968,241.2515L107.15408,241.2515Z" fill="rgb(55,146,206)" stroke="rgb(0,0,0)" stroke-width="0"/><path id="eXG3BmHRTtx45" d="M121.90304,240.08431L132.01864,240.08431L132.01864,241.28687L121.90304,241.28687Z" fill="rgb(55,146,206)" stroke="rgb(0,0,0)" stroke-width="0"/><path id="eXG3BmHRTtx46" d="M136.54591,240.01357L146.66151,240.01357L146.66151,241.21613L136.54591,241.21613Z" fill="rgb(55,146,206)" stroke="rgb(0,0,0)" stroke-width="0"/><path id="eXG3BmHRTtx47" d="M136.54591,241.72898C139.91777,241.72898,142.28516,241.72898,146.66151,241.72898L146.64381,243.62124L136.52821,243.62124Z" fill="rgb(55,146,206)" stroke="rgb(0,0,0)" stroke-width="0"/><path id="eXG3BmHRTtx48" d="M121.90305,241.74667C125.27491,241.74667,127.64231,241.74667,132.01865,241.74667L132.00095,243.63893L121.88535,243.63893Z" fill="rgb(55,146,206)" stroke="rgb(0,0,0)" stroke-width="0"/><path id="eXG3BmHRTtx49" d="M107.19829,241.72013C110.57016,241.72013,112.93755,241.72013,117.31389,241.72013L117.29619,243.61239L107.18059,243.61239Z" fill="rgb(55,146,206)" stroke="rgb(0,0,0)" stroke-width="0"/><rect id="eXG3BmHRTtx50" width="13.5553" height="2.65104" rx="0" ry="0" transform="matrix(1 0 0 1 112.894 250.348)" fill="rgb(0,57,95)" stroke="none" stroke-width="0"/><rect id="eXG3BmHRTtx51" width="13.5553" height="2.65104" rx="0" ry="0" transform="matrix(1 0 0 1 127.85 250.348)" fill="rgb(0,57,95)" stroke="none" stroke-width="0"/><rect id="eXG3BmHRTtx52" width="13.5553" height="2.65104" rx="0" ry="0" transform="matrix(1 0 0 1 112.894 250.348)" fill="rgb(0,57,95)" stroke="none" stroke-width="0"/><rect id="eXG3BmHRTtx53" width="13.5553" height="2.65104" rx="0" ry="0" transform="matrix(1 0 0 1 127.85 250.348)" fill="rgb(0,57,95)" stroke="none" stroke-width="0"/><rect id="eXG3BmHRTtx54" width="13.5553" height="2.65104" rx="0" ry="0" transform="matrix(0 1 -1 0 105.273 264.44)" fill="rgb(0,57,95)" stroke="none" stroke-width="0"/><rect id="eXG3BmHRTtx55" width="13.5553" height="2.65104" rx="0" ry="0" transform="matrix(0 1 -1 0 105.273 279.396)" fill="rgb(0,57,95)" stroke="none" stroke-width="0"/><rect id="eXG3BmHRTtx56" width="13.5553" height="2.65104" rx="0" ry="0" transform="matrix(0 1 -1 0 112.913 264.44)" fill="rgb(0,57,95)" stroke="none" stroke-width="0"/><rect id="eXG3BmHRTtx57" width="13.5553" height="2.65104" rx="0" ry="0" transform="matrix(0 1 -1 0 112.913 279.396)" fill="rgb(0,57,95)" stroke="none" stroke-width="0"/><rect id="eXG3BmHRTtx58" width="13.5553" height="2.65104" rx="0" ry="0" transform="matrix(0 1 -1 0 120.694 264.44)" fill="rgb(0,57,95)" stroke="none" stroke-width="0"/><rect id="eXG3BmHRTtx59" width="13.5553" height="2.65104" rx="0" ry="0" transform="matrix(0 1 -1 0 120.694 279.396)" fill="rgb(0,57,95)" stroke="none" stroke-width="0"/><rect id="eXG3BmHRTtx60" width="13.5553" height="2.65104" rx="0" ry="0" transform="matrix(0 1 -1 0 128.192 264.44)" fill="rgb(0,57,95)" stroke="none" stroke-width="0"/><rect id="eXG3BmHRTtx61" width="13.5553" height="2.65104" rx="0" ry="0" transform="matrix(0 1 -1 0 128.192 279.396)" fill="rgb(0,57,95)" stroke="none" stroke-width="0"/><rect id="eXG3BmHRTtx62" width="13.5553" height="2.65104" rx="0" ry="0" transform="matrix(0 1 -1 0 136.044 264.44)" fill="rgb(0,57,95)" stroke="none" stroke-width="0"/><rect id="eXG3BmHRTtx63" width="13.5553" height="2.65104" rx="0" ry="0" transform="matrix(0 1 -1 0 136.044 279.396)" fill="rgb(0,57,95)" stroke="none" stroke-width="0"/><rect id="eXG3BmHRTtx64" width="13.5553" height="2.65104" rx="0" ry="0" transform="matrix(0 1 -1 0 143.684 264.44)" fill="rgb(0,57,95)" stroke="none" stroke-width="0"/><rect id="eXG3BmHRTtx65" width="13.5553" height="2.65104" rx="0" ry="0" transform="matrix(0 1 -1 0 143.684 279.396)" fill="rgb(0,57,95)" stroke="none" stroke-width="0"/><rect id="eXG3BmHRTtx66" width="13.5553" height="2.65104" rx="0" ry="0" transform="matrix(0 1 -1 0 151.324 264.44)" fill="rgb(0,57,95)" stroke="none" stroke-width="0"/><rect id="eXG3BmHRTtx67" width="13.5553" height="2.65104" rx="0" ry="0" transform="matrix(0 1 -1 0 151.324 279.396)" fill="rgb(0,57,95)" stroke="none" stroke-width="0"/><path id="eXG3BmHRTtx68" d="M103.99061,243.59563L149.84473,243.59563L149.84473,259.50201L103.93548,259.50201Z" fill="none" stroke="rgb(124,140,149)" stroke-width="0.665" stroke-linejoin="round"/><path id="eXG3BmHRTtx69" d="M94.822559,259.80189L156.89694,259.80189L156.89694,297.89826L94.747929,297.89826Z" fill="none" stroke="rgb(124,140,149)" stroke-width="0.737" stroke-linejoin="round"/><rect id="eXG3BmHRTtx70" width="5.69474" height="47.3537" rx="0" ry="0" transform="matrix(1 0 0 1 62.3867 249.648)" fill="rgb(0,57,95)" stroke="rgb(205,226,246)" stroke-width="0"/><path id="eXG3BmHRTtx71" d="M61.074162,249.64779L61.074162,297.86707L69.277279,297.86707L69.277279,249.64779L68.081486,249.64779L68.081486,253.28477L62.386744,253.28477L62.386744,249.64779ZM62.386744,254.22217L68.081486,254.22217L68.081486,258.2364L62.386744,258.2364ZM62.386744,259.06788L68.081486,259.06788L68.081486,263.08211L62.386744,263.08211ZM62.386744,263.98386L68.081486,263.98386L68.081486,267.9986L62.386744,267.9986ZM62.386744,268.79441L68.081486,268.79441L68.081486,272.80864L62.386744,272.80864ZM62.386744,273.67526L68.081486,273.67526L68.081486,277.68946L62.386744,277.68946ZM62.386744,278.45014L68.081486,278.45014L68.081486,282.46437L62.386744,282.46437ZM62.386744,283.33099L68.081486,283.33099L68.081486,287.34522L62.386744,287.34522ZM62.386744,288.1767L68.081486,288.1767L68.081486,292.19091L62.386744,292.19091ZM62.386744,292.98675L68.081486,292.98675L68.081486,297.00148L62.386744,297.00148Z" fill="rgb(50,140,213)" fill-opacity="0.938298" stroke="none" stroke-width="1.03802"/><g id="eXG3BmHRTtx72" transform="matrix(1 0 0 1 69.6273 -60.0236)"><rect id="eXG3BmHRTtx73" width="37.4498" height="4.23704" rx="0" ry="0" transform="matrix(1 0 0 1 -12.0547 303.369)" fill="rgb(50,140,213)" stroke="none" stroke-width="0.537001"/><path id="eXG3BmHRTtx74" d="M-11.919428,301.87632C-11.945478,301.25792,-13.646164,301.18817,-13.68789,301.87632L-13.68789,307.62076C-14.259797,307.64796,-14.238068,309.70104,-13.68789,309.72828L27.128194,309.72828C27.737129,309.70438,27.69213,307.7325,27.128194,307.67078L27.128194,301.6641C27.057444,301.0361,25.413628,301.00117,25.395103,301.6641L25.395103,307.60614L-11.954798,307.60614Z" fill="rgb(50,140,213)" stroke="rgb(0,0,0)" stroke-width="0"/><path id="eXG3BmHRTtx75" d="M-12.054732,305.51993L25.359956,305.51993" fill="rgb(205,226,246)" stroke="rgb(205,226,246)" stroke-width="0.264583"/><path id="eXG3BmHRTtx76" d="M25.409975,303.3691L-12.054732,303.3691" fill="rgb(205,226,246)" stroke="rgb(205,226,246)" stroke-width="0.264583"/><path id="eXG3BmHRTtx77" d="M-7.903102,307.52073L-7.903102,302.1186" fill="rgb(205,226,246)" stroke="rgb(205,226,246)" stroke-width="0.264583"/><path id="eXG3BmHRTtx78" d="M-3.051198,307.62077L-3.051198,302.21864" fill="rgb(205,226,246)" stroke="rgb(205,226,246)" stroke-width="0.264583"/><path id="eXG3BmHRTtx79" d="M1.850727,307.52073L1.850727,302.16861" fill="rgb(205,226,246)" stroke="rgb(205,226,246)" stroke-width="0.264583"/><path id="eXG3BmHRTtx80" d="M6.802671,307.52073L6.802671,301.91852" fill="rgb(205,226,246)" stroke="rgb(205,226,246)" stroke-width="0.264583"/><path id="eXG3BmHRTtx81" d="M11.554536,307.4707L11.554536,302.01856" fill="rgb(205,226,246)" stroke="rgb(205,226,246)" stroke-width="0.264583"/><path id="eXG3BmHRTtx82" d="M16.45646,307.52073L16.45646,302.06857" fill="rgb(205,226,246)" stroke="rgb(205,226,246)" stroke-width="0.264583"/><path id="eXG3BmHRTtx83" d="M21.358385,307.4707L21.358385,302.26865" fill="rgb(205,226,246)" stroke="rgb(205,226,246)" stroke-width="0.264583"/></g><g id="eXG3BmHRTtx84" transform="matrix(1 0 0 1 69.6273 -80.4316)"><rect id="eXG3BmHRTtx85" width="37.4498" height="4.23704" rx="0" ry="0" transform="matrix(1 0 0 1 -12.0547 303.369)" fill="rgb(50,140,213)" stroke="none" stroke-width="0.537001"/><path id="eXG3BmHRTtx86" d="M-11.919428,301.87632C-11.945478,301.25792,-13.646164,301.18817,-13.68789,301.87632L-13.68789,307.62076C-14.259797,307.64796,-14.238068,309.70104,-13.68789,309.72828L27.128194,309.72828C27.737129,309.70438,27.69213,307.7325,27.128194,307.67078L27.128194,301.6641C27.057444,301.0361,25.413628,301.00117,25.395103,301.6641L25.395103,307.60614L-11.954798,307.60614Z" fill="rgb(50,140,213)" stroke="rgb(0,0,0)" stroke-width="0"/><path id="eXG3BmHRTtx87" d="M-12.054732,305.51993L25.359956,305.51993" fill="rgb(205,226,246)" stroke="rgb(205,226,246)" stroke-width="0.264583"/><path id="eXG3BmHRTtx88" d="M25.409975,303.3691L-12.054732,303.3691" fill="rgb(205,226,246)" stroke="rgb(205,226,246)" stroke-width="0.264583"/><path id="eXG3BmHRTtx89" d="M-7.903102,307.52073L-7.903102,302.1186" fill="rgb(205,226,246)" stroke="rgb(205,226,246)" stroke-width="0.264583"/><path id="eXG3BmHRTtx90" d="M-3.051198,307.62077L-3.051198,302.21864" fill="rgb(205,226,246)" stroke="rgb(205,226,246)" stroke-width="0.264583"/><path id="eXG3BmHRTtx91" d="M1.850727,307.52073L1.850727,302.16861" fill="rgb(205,226,246)" stroke="rgb(205,226,246)" stroke-width="0.264583"/><path id="eXG3BmHRTtx92" d="M6.802671,307.52073L6.802671,301.91852" fill="rgb(205,226,246)" stroke="rgb(205,226,246)" stroke-width="0.264583"/><path id="eXG3BmHRTtx93" d="M11.554536,307.4707L11.554536,302.01856" fill="rgb(205,226,246)" stroke="rgb(205,226,246)" stroke-width="0.264583"/><path id="eXG3BmHRTtx94" d="M16.45646,307.52073L16.45646,302.06857" fill="rgb(205,226,246)" stroke="rgb(205,226,246)" stroke-width="0.264583"/><path id="eXG3BmHRTtx95" d="M21.358385,307.4707L21.358385,302.26865" fill="rgb(205,226,246)" stroke="rgb(205,226,246)" stroke-width="0.264583"/></g><path id="eXG3BmHRTtx96" d="M71.127923,194.07619L81.757096,194.07619C82.4478,194.08119,82.204285,195.38613,81.757096,195.67057L81.294983,195.97632L81.294983,202.85464L71.628119,202.85464L71.628119,195.97632L71.140428,195.67057C70.592854,195.30928,70.575951,194.15484,71.127918,194.07619Z" fill="rgb(50,140,213)" stroke="rgb(0,0,0)" stroke-width="0"/><g id="eXG3BmHRTtx97" transform="matrix(0.75167 0 0 0.959746 71.2795 -88.752)"><rect id="eXG3BmHRTtx98" width="37.4498" height="4.23704" rx="0" ry="0" transform="matrix(1 0 0 1 -12.0547 303.369)" fill="rgb(50,140,213)" stroke="none" stroke-width="0.537001"/><path id="eXG3BmHRTtx99" d="M-11.919428,301.87632C-11.945478,301.25792,-13.646164,301.18817,-13.68789,301.87632L-13.68789,307.62076C-14.259797,307.64796,-14.238068,309.70104,-13.68789,309.72828L27.128194,309.72828C27.737129,309.70438,27.69213,307.7325,27.128194,307.67078L27.128194,301.6641C27.057444,301.0361,25.413628,301.00117,25.395103,301.6641L25.395103,307.60614L-11.954798,307.60614Z" fill="rgb(50,140,213)" stroke="rgb(0,0,0)" stroke-width="0"/><path id="eXG3BmHRTtx100" d="M-12.054732,305.51993L25.359956,305.51993" fill="rgb(205,226,246)" stroke="rgb(205,226,246)" stroke-width="0.264583"/><path id="eXG3BmHRTtx101" d="M25.409975,303.3691L-12.054732,303.3691" fill="rgb(205,226,246)" stroke="rgb(205,226,246)" stroke-width="0.264583"/><path id="eXG3BmHRTtx102" d="M-7.903102,307.52073L-7.903102,302.1186" fill="rgb(205,226,246)" stroke="rgb(205,226,246)" stroke-width="0.264583"/><path id="eXG3BmHRTtx103" d="M-3.051198,307.62077L-3.051198,302.21864" fill="rgb(205,226,246)" stroke="rgb(205,226,246)" stroke-width="0.264583"/><path id="eXG3BmHRTtx104" d="M1.850727,307.52073L1.850727,302.16861" fill="rgb(205,226,246)" stroke="rgb(205,226,246)" stroke-width="0.264583"/><path id="eXG3BmHRTtx105" d="M6.802671,307.52073L6.802671,301.91852" fill="rgb(205,226,246)" stroke="rgb(205,226,246)" stroke-width="0.264583"/><path id="eXG3BmHRTtx106" d="M11.554536,307.4707L11.554536,302.01856" fill="rgb(205,226,246)" stroke="rgb(205,226,246)" stroke-width="0.264583"/><path id="eXG3BmHRTtx107" d="M16.45646,307.52073L16.45646,302.06857" fill="rgb(205,226,246)" stroke="rgb(205,226,246)" stroke-width="0.264583"/><path id="eXG3BmHRTtx108" d="M21.358385,307.4707L21.358385,302.26865" fill="rgb(205,226,246)" stroke="rgb(205,226,246)" stroke-width="0.264583"/></g></g></g></svg>